%TF.GenerationSoftware,KiCad,Pcbnew,(6.0.7)*%
%TF.CreationDate,2025-03-09T22:25:54+09:00*%
%TF.ProjectId,Main_SMD_Controller,4d61696e-5f53-44d4-945f-436f6e74726f,rev?*%
%TF.SameCoordinates,Original*%
%TF.FileFunction,Paste,Top*%
%TF.FilePolarity,Positive*%
%FSLAX46Y46*%
G04 Gerber Fmt 4.6, Leading zero omitted, Abs format (unit mm)*
G04 Created by KiCad (PCBNEW (6.0.7)) date 2025-03-09 22:25:54*
%MOMM*%
%LPD*%
G01*
G04 APERTURE LIST*
G04 Aperture macros list*
%AMRoundRect*
0 Rectangle with rounded corners*
0 $1 Rounding radius*
0 $2 $3 $4 $5 $6 $7 $8 $9 X,Y pos of 4 corners*
0 Add a 4 corners polygon primitive as box body*
4,1,4,$2,$3,$4,$5,$6,$7,$8,$9,$2,$3,0*
0 Add four circle primitives for the rounded corners*
1,1,$1+$1,$2,$3*
1,1,$1+$1,$4,$5*
1,1,$1+$1,$6,$7*
1,1,$1+$1,$8,$9*
0 Add four rect primitives between the rounded corners*
20,1,$1+$1,$2,$3,$4,$5,0*
20,1,$1+$1,$4,$5,$6,$7,0*
20,1,$1+$1,$6,$7,$8,$9,0*
20,1,$1+$1,$8,$9,$2,$3,0*%
G04 Aperture macros list end*
%ADD10R,1.524000X2.159000*%
%ADD11R,1.200000X0.900000*%
%ADD12RoundRect,0.150000X0.587500X0.150000X-0.587500X0.150000X-0.587500X-0.150000X0.587500X-0.150000X0*%
%ADD13R,1.850000X0.550000*%
%ADD14R,2.750000X3.050000*%
%ADD15R,1.200000X2.200000*%
%ADD16RoundRect,0.225000X-0.250000X0.225000X-0.250000X-0.225000X0.250000X-0.225000X0.250000X0.225000X0*%
%ADD17RoundRect,0.225000X0.250000X-0.225000X0.250000X0.225000X-0.250000X0.225000X-0.250000X-0.225000X0*%
%ADD18RoundRect,0.200000X-0.275000X0.200000X-0.275000X-0.200000X0.275000X-0.200000X0.275000X0.200000X0*%
%ADD19RoundRect,0.250000X-1.425000X0.362500X-1.425000X-0.362500X1.425000X-0.362500X1.425000X0.362500X0*%
%ADD20RoundRect,0.150000X0.825000X0.150000X-0.825000X0.150000X-0.825000X-0.150000X0.825000X-0.150000X0*%
%ADD21RoundRect,0.200000X-0.200000X-0.275000X0.200000X-0.275000X0.200000X0.275000X-0.200000X0.275000X0*%
%ADD22RoundRect,0.200000X0.200000X0.275000X-0.200000X0.275000X-0.200000X-0.275000X0.200000X-0.275000X0*%
%ADD23RoundRect,0.225000X-0.225000X-0.250000X0.225000X-0.250000X0.225000X0.250000X-0.225000X0.250000X0*%
%ADD24RoundRect,0.250000X-1.000000X1.750000X-1.000000X-1.750000X1.000000X-1.750000X1.000000X1.750000X0*%
%ADD25RoundRect,0.225000X0.225000X0.250000X-0.225000X0.250000X-0.225000X-0.250000X0.225000X-0.250000X0*%
%ADD26R,1.200000X1.200000*%
%ADD27R,1.500000X1.600000*%
%ADD28RoundRect,0.100000X-0.712500X-0.100000X0.712500X-0.100000X0.712500X0.100000X-0.712500X0.100000X0*%
G04 APERTURE END LIST*
D10*
%TO.C,R10*%
X76200000Y-65786000D03*
X76200000Y-55626000D03*
%TD*%
D11*
%TO.C,D1*%
X52578000Y-47370000D03*
X52578000Y-44070000D03*
%TD*%
D12*
%TO.C,Q1*%
X79933800Y-84404200D03*
X81808800Y-83454200D03*
X81808800Y-85354200D03*
%TD*%
D13*
%TO.C,U2*%
X62403000Y-82042000D03*
X62403000Y-83312000D03*
X62403000Y-84582000D03*
X62403000Y-85852000D03*
X62403000Y-87122000D03*
X62403000Y-88392000D03*
X62403000Y-89662000D03*
X68153000Y-89662000D03*
X68153000Y-88392000D03*
X68153000Y-87122000D03*
X68153000Y-85852000D03*
X68153000Y-84582000D03*
X68153000Y-83312000D03*
X68153000Y-82042000D03*
%TD*%
D14*
%TO.C,U1*%
X69470000Y-108940000D03*
X66420000Y-108940000D03*
X66420000Y-105590000D03*
X69470000Y-105590000D03*
D15*
X70225000Y-100965000D03*
X65665000Y-100965000D03*
%TD*%
D16*
%TO.C,C1*%
X72390000Y-100965000D03*
X72390000Y-102515000D03*
%TD*%
D17*
%TO.C,C6*%
X71120000Y-81547000D03*
X71120000Y-79997000D03*
%TD*%
D18*
%TO.C,R1*%
X71120000Y-83312000D03*
X71120000Y-84962000D03*
%TD*%
D19*
%TO.C,R11*%
X40132000Y-82127500D03*
X40132000Y-88052500D03*
%TD*%
D20*
%TO.C,U3*%
X54545000Y-86995000D03*
X54545000Y-85725000D03*
X54545000Y-84455000D03*
X54545000Y-83185000D03*
X49595000Y-83185000D03*
X49595000Y-84455000D03*
X49595000Y-85725000D03*
X49595000Y-86995000D03*
%TD*%
D18*
%TO.C,R2*%
X66929000Y-92710000D03*
X66929000Y-94360000D03*
%TD*%
D21*
%TO.C,R6*%
X70295000Y-65786000D03*
X71945000Y-65786000D03*
%TD*%
D22*
%TO.C,R5*%
X78041000Y-70612000D03*
X76391000Y-70612000D03*
%TD*%
D18*
%TO.C,R4*%
X83693000Y-83503000D03*
X83693000Y-85153000D03*
%TD*%
D23*
%TO.C,C8*%
X64503000Y-72898000D03*
X66053000Y-72898000D03*
%TD*%
D24*
%TO.C,C3*%
X57785000Y-100965000D03*
X57785000Y-107065000D03*
%TD*%
D22*
%TO.C,R9*%
X59499000Y-83185000D03*
X57849000Y-83185000D03*
%TD*%
D25*
%TO.C,C4*%
X71856000Y-73660000D03*
X73406000Y-73660000D03*
%TD*%
D22*
%TO.C,R8*%
X59499000Y-84709000D03*
X57849000Y-84709000D03*
%TD*%
D19*
%TO.C,R12*%
X36068000Y-82127500D03*
X36068000Y-88052500D03*
%TD*%
D22*
%TO.C,R7*%
X59499000Y-75946000D03*
X57849000Y-75946000D03*
%TD*%
D25*
%TO.C,C7*%
X77991000Y-72136000D03*
X76441000Y-72136000D03*
%TD*%
D16*
%TO.C,C5*%
X53086000Y-88646000D03*
X53086000Y-90196000D03*
%TD*%
D26*
%TO.C,RV1*%
X63478000Y-75962000D03*
D27*
X66728000Y-76962000D03*
D26*
X63478000Y-77962000D03*
%TD*%
D28*
%TO.C,U4*%
X70277500Y-75479000D03*
X70277500Y-76129000D03*
X70277500Y-76779000D03*
X70277500Y-77429000D03*
X74502500Y-77429000D03*
X74502500Y-76779000D03*
X74502500Y-76129000D03*
X74502500Y-75479000D03*
%TD*%
D18*
%TO.C,R3*%
X64008000Y-92710000D03*
X64008000Y-94360000D03*
%TD*%
D16*
%TO.C,C2*%
X63500000Y-100965000D03*
X63500000Y-102515000D03*
%TD*%
M02*
