%TF.GenerationSoftware,KiCad,Pcbnew,(6.0.7)*%
%TF.CreationDate,2025-03-09T22:25:54+09:00*%
%TF.ProjectId,Main_SMD_Controller,4d61696e-5f53-44d4-945f-436f6e74726f,rev?*%
%TF.SameCoordinates,Original*%
%TF.FileFunction,Soldermask,Bot*%
%TF.FilePolarity,Negative*%
%FSLAX46Y46*%
G04 Gerber Fmt 4.6, Leading zero omitted, Abs format (unit mm)*
G04 Created by KiCad (PCBNEW (6.0.7)) date 2025-03-09 22:25:54*
%MOMM*%
%LPD*%
G01*
G04 APERTURE LIST*
G04 Aperture macros list*
%AMRoundRect*
0 Rectangle with rounded corners*
0 $1 Rounding radius*
0 $2 $3 $4 $5 $6 $7 $8 $9 X,Y pos of 4 corners*
0 Add a 4 corners polygon primitive as box body*
4,1,4,$2,$3,$4,$5,$6,$7,$8,$9,$2,$3,0*
0 Add four circle primitives for the rounded corners*
1,1,$1+$1,$2,$3*
1,1,$1+$1,$4,$5*
1,1,$1+$1,$6,$7*
1,1,$1+$1,$8,$9*
0 Add four rect primitives between the rounded corners*
20,1,$1+$1,$2,$3,$4,$5,0*
20,1,$1+$1,$4,$5,$6,$7,0*
20,1,$1+$1,$6,$7,$8,$9,0*
20,1,$1+$1,$8,$9,$2,$3,0*%
G04 Aperture macros list end*
%ADD10RoundRect,0.250000X0.725000X-0.600000X0.725000X0.600000X-0.725000X0.600000X-0.725000X-0.600000X0*%
%ADD11O,1.950000X1.700000*%
%ADD12O,2.000000X1.700000*%
%ADD13RoundRect,0.250000X0.750000X-0.600000X0.750000X0.600000X-0.750000X0.600000X-0.750000X-0.600000X0*%
%ADD14R,1.700000X1.700000*%
%ADD15O,1.700000X1.700000*%
%ADD16C,1.600000*%
%ADD17C,3.200000*%
%ADD18R,4.000000X3.500000*%
%ADD19RoundRect,0.750000X1.000000X-0.750000X1.000000X0.750000X-1.000000X0.750000X-1.000000X-0.750000X0*%
%ADD20RoundRect,0.875000X0.875000X-0.875000X0.875000X0.875000X-0.875000X0.875000X-0.875000X-0.875000X0*%
%ADD21C,2.100000*%
%ADD22C,2.700000*%
%ADD23RoundRect,0.250000X-0.600000X-0.750000X0.600000X-0.750000X0.600000X0.750000X-0.600000X0.750000X0*%
%ADD24O,1.700000X2.000000*%
%ADD25O,3.500000X3.500000*%
%ADD26R,1.905000X2.000000*%
%ADD27O,1.905000X2.000000*%
G04 APERTURE END LIST*
D10*
%TO.C,J4*%
X90170000Y-76200000D03*
D11*
X90170000Y-73700000D03*
X90170000Y-71200000D03*
X90170000Y-68700000D03*
%TD*%
D12*
%TO.C,J5*%
X90170000Y-99100000D03*
D13*
X90170000Y-101600000D03*
%TD*%
%TO.C,J9*%
X90170000Y-62230000D03*
D12*
X90170000Y-59730000D03*
%TD*%
D14*
%TO.C,J7*%
X78725000Y-52070000D03*
D15*
X76185000Y-52070000D03*
X73645000Y-52070000D03*
%TD*%
D16*
%TO.C,TH1*%
X83820000Y-62230000D03*
X83820000Y-59730000D03*
%TD*%
D17*
%TO.C,H3*%
X90000000Y-110000000D03*
%TD*%
D18*
%TO.C,J1*%
X78740000Y-100965000D03*
D19*
X78740000Y-107215000D03*
D20*
X83540000Y-103965000D03*
%TD*%
D13*
%TO.C,J13*%
X51562000Y-75946000D03*
D12*
X51562000Y-73446000D03*
%TD*%
D21*
%TO.C,RLY1*%
X52570000Y-63150000D03*
X64770000Y-63150000D03*
X64770000Y-51150000D03*
X52570000Y-51150000D03*
X50570000Y-57150000D03*
%TD*%
D22*
%TO.C,J8*%
X33100000Y-101340000D03*
X43100000Y-101340000D03*
X38100000Y-101340000D03*
X33100000Y-94240000D03*
X43100000Y-94240000D03*
X38100000Y-94240000D03*
%TD*%
D23*
%TO.C,J3*%
X45740000Y-110600000D03*
D24*
X48240000Y-110600000D03*
%TD*%
D17*
%TO.C,H4*%
X90000000Y-35000000D03*
%TD*%
D25*
%TO.C,Q2*%
X26670000Y58230000D03*
D26*
X24130000Y41570000D03*
D27*
X26670000Y41570000D03*
X29210000Y41570000D03*
%TD*%
D22*
%TO.C,J12*%
X33100000Y-60700000D03*
X33100000Y-53600000D03*
X38100000Y-60700000D03*
X43100000Y-53600000D03*
X38100000Y-53600000D03*
X43100000Y-60700000D03*
%TD*%
%TO.C,J14*%
X38100000Y-68840000D03*
X38100000Y-75940000D03*
X33100000Y-68840000D03*
X43100000Y-68840000D03*
X33100000Y-75940000D03*
X43100000Y-75940000D03*
%TD*%
D17*
%TO.C,H1*%
X35000000Y-35000000D03*
%TD*%
%TO.C,H2*%
X35000000Y-110000000D03*
%TD*%
D22*
%TO.C,J11*%
X58680000Y-38100000D03*
X58680000Y-33100000D03*
X58680000Y-43100000D03*
X65780000Y-33100000D03*
X65780000Y-38100000D03*
X65780000Y-43100000D03*
%TD*%
%TO.C,J10*%
X72650000Y-38100000D03*
X79750000Y-43100000D03*
X79750000Y-38100000D03*
X72650000Y-33100000D03*
X79750000Y-33100000D03*
X72650000Y-43100000D03*
%TD*%
D10*
%TO.C,J2*%
X90170000Y-92710000D03*
D11*
X90170000Y-90210000D03*
X90170000Y-87710000D03*
X90170000Y-85210000D03*
X90170000Y-82710000D03*
%TD*%
M02*
