M48
; DRILL file {KiCad (6.0.7)} date Sun Mar  9 22:25:53 2025
; FORMAT={-:-/ absolute / inch / decimal}
; #@! TF.CreationDate,2025-03-09T22:25:53+09:00
; #@! TF.GenerationSoftware,Kicad,Pcbnew,(6.0.7)
; #@! TF.FileFunction,Plated,1,2,PTH
FMAT,2
INCH
; #@! TA.AperFunction,Plated,PTH,ViaDrill
T1C0.0157
; #@! TA.AperFunction,Plated,PTH,ComponentDrill
T2C0.0315
; #@! TA.AperFunction,Plated,PTH,ComponentDrill
T3C0.0374
; #@! TA.AperFunction,Plated,PTH,ComponentDrill
T4C0.0394
; #@! TA.AperFunction,Plated,PTH,ComponentDrill
T5C0.0433
; #@! TA.AperFunction,Plated,PTH,ComponentDrill
T6C0.0512
; #@! TA.AperFunction,Plated,PTH,ComponentDrill
T7C0.0709
%
G90
G05
T1
X1.25Y-3.08
X1.25Y-3.62
X1.35Y-3.08
X1.35Y-3.18
X1.35Y-3.52
X1.35Y-3.62
X1.5Y-3.08
X1.5Y-3.18
X1.5Y-3.52
X1.5Y-3.62
X1.65Y-3.08
X1.65Y-3.18
X1.655Y-3.52
X1.655Y-3.62
X1.7Y-3.275
X1.7Y-3.425
X1.75Y-3.08
X1.75Y-3.62
X1.781Y-3.5
X1.79Y-2.075
X1.79Y-2.25
X1.79Y-2.425
X1.84Y-2.125
X1.84Y-2.375
X1.87Y-3.236
X1.89Y-2.175
X1.89Y-2.25
X1.89Y-2.325
X1.895Y-4.1
X1.9Y-2.67
X1.9Y-3.085
X1.9Y-4.49
X1.92Y-3.175
X2.007Y-3.471
X2.015Y-3.325
X2.015Y-3.375
X2.015Y-3.68
X2.05Y-3.905
X2.071Y-3.179
X2.085Y-3.275
X2.085Y-3.425
X2.12Y-2.84
X2.146Y-3.532
X2.185Y-4.215
X2.19Y-4.03
X2.191Y-3.921
X2.214Y-3.129
X2.22Y-3.425
X2.23Y-2.67
X2.23Y-3.035
X2.231Y-3.863
X2.232Y-3.58
X2.245Y-2.945
X2.26Y-1.795
X2.275Y-4.095
X2.28Y-1.865
X2.28Y-2.785
X2.319Y-3.862
X2.33Y-2.935
X2.335Y-3.415
X2.35Y-1.93
X2.359Y-3.921
X2.36Y-4.03
X2.365Y-4.215
X2.37Y-3.665
X2.39Y-3.415
X2.39Y-3.48
X2.44Y-4.03
X2.443Y-2.987
X2.45Y-1.795
X2.452Y-3.132
X2.47Y-2.93
X2.485Y-3.575
X2.495Y-1.93
X2.5Y-3.125
X2.5Y-4.095
X2.515Y-2.815
X2.515Y-4.225
X2.53Y-2.93
X2.538Y-3.156
X2.545Y-2.665
X2.559Y-3.032
X2.56Y-3.275
X2.575Y-3.65
X2.58Y-3.7
X2.58Y-3.825
X2.599Y-3.186
X2.6Y-4.49
X2.605Y-3.365
X2.61Y-3.28
X2.615Y-3.42
X2.62Y-3.53
X2.64Y-1.795
X2.64Y-1.865
X2.64Y-1.93
X2.65Y-2.67
X2.655Y-3.575
X2.675Y-4.055
X2.675Y-4.395
X2.685Y-3.62
X2.685Y-3.685
X2.695Y-3.062
X2.75Y-3.185
X2.75Y-3.365
X2.755Y-3.47
X2.775Y-2.77
X2.775Y-2.92
X2.81Y-3.825
X2.82Y-2.99
X2.821Y-3.922
X2.825Y-3.685
X2.829Y-3.098
X2.83Y-3.045
X2.835Y-3.585
X2.835Y-4.22
X2.845Y-3.24
X2.865Y-3.21
X2.865Y-3.325
X2.88Y-3.58
X2.88Y-3.69
X2.905Y-3.1
X2.905Y-3.36
X2.92Y-3.265
X2.93Y-3.4
X2.93Y-3.58
X2.93Y-3.685
X2.945Y-2.93
X2.955Y-3.09
X2.96Y-2.67
X2.96Y-2.8
X2.96Y-3.3
X2.975Y-3.43
X2.98Y-2.89
X2.985Y-3.915
X3.0Y-2.96
X3.0Y-3.33
X3.03Y-3.37
X3.04Y-2.67
X3.04Y-2.73
X3.04Y-3.51
X3.07Y-2.92
X3.08Y-3.48
X3.105Y-3.285
X3.11Y-3.44
X3.115Y-2.81
X3.12Y-2.87
X3.12Y-3.05
X3.12Y-3.1
X3.13Y-2.67
X3.13Y-2.76
X3.13Y-3.585
X3.13Y-3.755
X3.16Y-3.505
X3.17Y-2.61
X3.17Y-2.95
X3.185Y-3.585
X3.215Y-2.61
X3.215Y-2.95
X3.215Y-3.915
X3.23Y-3.235
X3.235Y-3.585
X3.26Y-2.67
X3.26Y-2.77
X3.26Y-2.87
X3.26Y-3.01
X3.26Y-3.09
X3.27Y-2.96
X3.28Y-4.49
X3.34Y-2.96
X3.345Y-3.32
X3.38Y-3.03
X3.42Y-3.125
X3.48Y-2.79
X3.48Y-2.94
X3.495Y-3.405
X3.495Y-3.5
X3.495Y-3.595
X3.69Y-2.67
X3.69Y-3.13
X3.69Y-3.56
X3.69Y-3.92
T2
X3.3Y-2.3516
X3.3Y-2.45
T3
X3.55Y-2.7047
X3.55Y-2.8031
X3.55Y-2.9016
X3.55Y-3.0
X3.55Y-3.2563
X3.55Y-3.3547
X3.55Y-3.4531
X3.55Y-3.5516
X3.55Y-3.65
T4
X1.8008Y-4.3543
X1.8992Y-4.3543
X2.03Y-2.8916
X2.03Y-2.99
X2.8994Y-2.05
X2.9994Y-2.05
X3.0994Y-2.05
X3.55Y-2.3516
X3.55Y-2.45
X3.55Y-3.9016
X3.55Y-4.0
T5
X0.95Y1.6366
X1.05Y1.6366
X1.15Y1.6366
T6
X1.9909Y-2.25
X2.0697Y-2.0138
X2.0697Y-2.4862
X2.55Y-2.0138
X2.55Y-2.4862
T7
X1.3031Y-2.1102
X1.3031Y-2.3898
X1.3031Y-2.7102
X1.3031Y-2.9898
X1.3031Y-3.7102
X1.3031Y-3.9898
X1.5Y-2.1102
X1.5Y-2.3898
X1.5Y-2.7102
X1.5Y-2.9898
X1.5Y-3.7102
X1.5Y-3.9898
X1.6969Y-2.1102
X1.6969Y-2.3898
X1.6969Y-2.7102
X1.6969Y-2.9898
X1.6969Y-3.7102
X1.6969Y-3.9898
X2.3102Y-1.3031
X2.3102Y-1.5
X2.3102Y-1.6969
X2.5898Y-1.3031
X2.5898Y-1.5
X2.5898Y-1.6969
X2.8602Y-1.3031
X2.8602Y-1.5
X2.8602Y-1.6969
X3.1398Y-1.3031
X3.1398Y-1.5
X3.1398Y-1.6969
T4
G00X3.0508Y-3.975
M15
G01X3.1492Y-3.975
M16
G05
G00X3.0606Y-4.2211
M15
G01X3.1394Y-4.2211
M16
G05
G00X3.289Y-4.1325
M15
G01X3.289Y-4.0537
M16
G05
T0
M30
