%TF.GenerationSoftware,KiCad,Pcbnew,(6.0.7)*%
%TF.CreationDate,2025-03-09T22:25:54+09:00*%
%TF.ProjectId,Main_SMD_Controller,4d61696e-5f53-44d4-945f-436f6e74726f,rev?*%
%TF.SameCoordinates,Original*%
%TF.FileFunction,Copper,L2,Bot*%
%TF.FilePolarity,Positive*%
%FSLAX46Y46*%
G04 Gerber Fmt 4.6, Leading zero omitted, Abs format (unit mm)*
G04 Created by KiCad (PCBNEW (6.0.7)) date 2025-03-09 22:25:54*
%MOMM*%
%LPD*%
G01*
G04 APERTURE LIST*
G04 Aperture macros list*
%AMRoundRect*
0 Rectangle with rounded corners*
0 $1 Rounding radius*
0 $2 $3 $4 $5 $6 $7 $8 $9 X,Y pos of 4 corners*
0 Add a 4 corners polygon primitive as box body*
4,1,4,$2,$3,$4,$5,$6,$7,$8,$9,$2,$3,0*
0 Add four circle primitives for the rounded corners*
1,1,$1+$1,$2,$3*
1,1,$1+$1,$4,$5*
1,1,$1+$1,$6,$7*
1,1,$1+$1,$8,$9*
0 Add four rect primitives between the rounded corners*
20,1,$1+$1,$2,$3,$4,$5,0*
20,1,$1+$1,$4,$5,$6,$7,0*
20,1,$1+$1,$6,$7,$8,$9,0*
20,1,$1+$1,$8,$9,$2,$3,0*%
G04 Aperture macros list end*
%TA.AperFunction,ComponentPad*%
%ADD10RoundRect,0.250000X0.725000X-0.600000X0.725000X0.600000X-0.725000X0.600000X-0.725000X-0.600000X0*%
%TD*%
%TA.AperFunction,ComponentPad*%
%ADD11O,1.950000X1.700000*%
%TD*%
%TA.AperFunction,ComponentPad*%
%ADD12O,2.000000X1.700000*%
%TD*%
%TA.AperFunction,ComponentPad*%
%ADD13RoundRect,0.250000X0.750000X-0.600000X0.750000X0.600000X-0.750000X0.600000X-0.750000X-0.600000X0*%
%TD*%
%TA.AperFunction,ComponentPad*%
%ADD14R,1.700000X1.700000*%
%TD*%
%TA.AperFunction,ComponentPad*%
%ADD15O,1.700000X1.700000*%
%TD*%
%TA.AperFunction,ComponentPad*%
%ADD16C,1.600000*%
%TD*%
%TA.AperFunction,ComponentPad*%
%ADD17R,4.000000X3.500000*%
%TD*%
%TA.AperFunction,ComponentPad*%
%ADD18RoundRect,0.750000X1.000000X-0.750000X1.000000X0.750000X-1.000000X0.750000X-1.000000X-0.750000X0*%
%TD*%
%TA.AperFunction,ComponentPad*%
%ADD19RoundRect,0.875000X0.875000X-0.875000X0.875000X0.875000X-0.875000X0.875000X-0.875000X-0.875000X0*%
%TD*%
%TA.AperFunction,ComponentPad*%
%ADD20C,2.100000*%
%TD*%
%TA.AperFunction,ComponentPad*%
%ADD21C,2.700000*%
%TD*%
%TA.AperFunction,ComponentPad*%
%ADD22RoundRect,0.250000X-0.600000X-0.750000X0.600000X-0.750000X0.600000X0.750000X-0.600000X0.750000X0*%
%TD*%
%TA.AperFunction,ComponentPad*%
%ADD23O,1.700000X2.000000*%
%TD*%
%TA.AperFunction,ComponentPad*%
%ADD24R,1.905000X2.000000*%
%TD*%
%TA.AperFunction,ComponentPad*%
%ADD25O,1.905000X2.000000*%
%TD*%
%TA.AperFunction,ViaPad*%
%ADD26C,0.800000*%
%TD*%
%TA.AperFunction,Conductor*%
%ADD27C,0.500000*%
%TD*%
%TA.AperFunction,Conductor*%
%ADD28C,0.200000*%
%TD*%
G04 APERTURE END LIST*
D10*
%TO.P,J4,1,Pin_1*%
%TO.N,/Vmeas*%
X90170000Y-76200000D03*
D11*
%TO.P,J4,2,Pin_2*%
%TO.N,/Vref*%
X90170000Y-73700000D03*
%TO.P,J4,3,Pin_3*%
%TO.N,Vofs*%
X90170000Y-71200000D03*
%TO.P,J4,4,Pin_4*%
%TO.N,GND*%
X90170000Y-68700000D03*
%TD*%
D12*
%TO.P,J5,2,Pin_2*%
%TO.N,GND*%
X90170000Y-99100000D03*
D13*
%TO.P,J5,1,Pin_1*%
%TO.N,+12V*%
X90170000Y-101600000D03*
%TD*%
%TO.P,J9,1,Pin_1*%
%TO.N,Net-(J9-Pad1)*%
X90170000Y-62230000D03*
D12*
%TO.P,J9,2,Pin_2*%
%TO.N,Net-(J9-Pad2)*%
X90170000Y-59730000D03*
%TD*%
D14*
%TO.P,J7,1,Pin_1*%
%TO.N,/Vsens*%
X78725000Y-52070000D03*
D15*
%TO.P,J7,2,Pin_2*%
%TO.N,Net-(J7-Pad2)*%
X76185000Y-52070000D03*
%TO.P,J7,3,Pin_3*%
%TO.N,/Load+*%
X73645000Y-52070000D03*
%TD*%
D16*
%TO.P,TH1,1*%
%TO.N,Net-(J9-Pad1)*%
X83820000Y-62230000D03*
%TO.P,TH1,2*%
%TO.N,Net-(J9-Pad2)*%
X83820000Y-59730000D03*
%TD*%
D17*
%TO.P,J1,1*%
%TO.N,+12V*%
X78740000Y-100965000D03*
D18*
%TO.P,J1,2*%
%TO.N,GND*%
X78740000Y-107215000D03*
D19*
%TO.P,J1,3*%
%TO.N,unconnected-(J1-Pad3)*%
X83540000Y-103965000D03*
%TD*%
D13*
%TO.P,J13,1,Pin_1*%
%TO.N,Net-(J13-Pad1)*%
X51562000Y-75946000D03*
D12*
%TO.P,J13,2,Pin_2*%
%TO.N,GND*%
X51562000Y-73446000D03*
%TD*%
D20*
%TO.P,RLY1,5,COIL*%
%TO.N,+12V*%
X52570000Y-63150000D03*
%TO.P,RLY1,4,NC*%
%TO.N,Load-*%
X64770000Y-63150000D03*
%TO.P,RLY1,3,NO*%
%TO.N,/Load+*%
X64770000Y-51150000D03*
%TO.P,RLY1,2,COIL*%
%TO.N,LOAD_ENABLE*%
X52570000Y-51150000D03*
%TO.P,RLY1,1,COM*%
%TO.N,/MOS+*%
X50570000Y-57150000D03*
%TD*%
D21*
%TO.P,J8,1,Pin_1*%
%TO.N,Load-*%
X33100000Y-101340000D03*
X43100000Y-101340000D03*
X38100000Y-101340000D03*
X33100000Y-94240000D03*
X43100000Y-94240000D03*
X38100000Y-94240000D03*
%TD*%
D22*
%TO.P,J3,1,Pin_1*%
%TO.N,VCC*%
X45740000Y-110600000D03*
D23*
%TO.P,J3,2,Pin_2*%
%TO.N,GND*%
X48240000Y-110600000D03*
%TD*%
D24*
%TO.P,Q2,1,G*%
%TO.N,unconnected-(Q2-Pad1)*%
X24130000Y41570000D03*
D25*
%TO.P,Q2,2,D*%
%TO.N,unconnected-(Q2-Pad2)*%
X26670000Y41570000D03*
%TO.P,Q2,3,S*%
%TO.N,unconnected-(Q2-Pad3)*%
X29210000Y41570000D03*
%TD*%
D21*
%TO.P,J12,1,Pin_1*%
%TO.N,/MOS+*%
X33100000Y-60700000D03*
X33100000Y-53600000D03*
X38100000Y-60700000D03*
X43100000Y-53600000D03*
X38100000Y-53600000D03*
X43100000Y-60700000D03*
%TD*%
%TO.P,J14,1,Pin_1*%
%TO.N,/MOS-*%
X38100000Y-68840000D03*
X38100000Y-75940000D03*
X33100000Y-68840000D03*
X43100000Y-68840000D03*
X33100000Y-75940000D03*
X43100000Y-75940000D03*
%TD*%
%TO.P,J11,1,Pin_1*%
%TO.N,/Load+*%
X58680000Y-38100000D03*
X58680000Y-33100000D03*
X58680000Y-43100000D03*
X65780000Y-33100000D03*
X65780000Y-38100000D03*
X65780000Y-43100000D03*
%TD*%
%TO.P,J10,1,Pin_1*%
%TO.N,/Vsens*%
X72650000Y-38100000D03*
X79750000Y-43100000D03*
X79750000Y-38100000D03*
X72650000Y-33100000D03*
X79750000Y-33100000D03*
X72650000Y-43100000D03*
%TD*%
D10*
%TO.P,J2,1,Pin_1*%
%TO.N,SHUNT_SELECT2*%
X90170000Y-92710000D03*
D11*
%TO.P,J2,2,Pin_2*%
%TO.N,SHUNT_SELECT1*%
X90170000Y-90210000D03*
%TO.P,J2,3,Pin_3*%
%TO.N,Vconst_ENABLE*%
X90170000Y-87710000D03*
%TO.P,J2,4,Pin_4*%
%TO.N,Net-(J2-Pad4)*%
X90170000Y-85210000D03*
%TO.P,J2,5,Pin_5*%
%TO.N,GND*%
X90170000Y-82710000D03*
%TD*%
D26*
%TO.N,GND*%
X88392000Y-70866000D03*
X82804000Y-72898000D03*
X66040000Y-114046000D03*
X48260000Y-114046000D03*
X93726000Y-90424000D03*
X93726000Y-79502000D03*
X56642000Y-67818000D03*
X75184000Y-71120000D03*
X77216000Y-69342000D03*
X77216000Y-67818000D03*
X79502000Y-67818000D03*
X79502000Y-70104000D03*
X82804000Y-67818000D03*
X82804000Y-70358000D03*
X79248000Y-78740000D03*
X82804000Y-78486000D03*
X84836000Y-75184000D03*
X82804000Y-76454000D03*
X83058000Y-75184000D03*
X85852000Y-76962000D03*
X88392000Y-74676000D03*
X79248000Y-72898000D03*
%TO.N,Vofs*%
X79248000Y-77470000D03*
%TO.N,/MOS-*%
X34290000Y-78232000D03*
X41910000Y-78232000D03*
%TO.N,/Load+*%
X67056000Y-47371000D03*
X57912000Y-47371000D03*
X63373000Y-49022000D03*
X59690000Y-49022000D03*
X67056000Y-49022000D03*
X57404000Y-45593000D03*
X67056000Y-45593000D03*
X62230000Y-45593000D03*
%TO.N,/MOS+*%
X46736000Y-60325000D03*
X46736000Y-53975000D03*
X48006000Y-57150000D03*
X48006000Y-55245000D03*
X48006000Y-59055000D03*
X45466000Y-61595000D03*
X45466000Y-57150000D03*
X45466000Y-52705000D03*
%TO.N,/MOS-*%
X44450000Y-78232000D03*
X38100000Y-78232000D03*
X31750000Y-78232000D03*
X41910000Y-80772000D03*
X38100000Y-80772000D03*
X34290000Y-80772000D03*
%TO.N,Load-*%
X44450000Y-91948000D03*
X42037000Y-91948000D03*
X38100000Y-91948000D03*
X34290000Y-91948000D03*
X31750000Y-91948000D03*
X42037000Y-89408000D03*
X38100000Y-89408000D03*
X34290000Y-89408000D03*
%TO.N,GND*%
X69977000Y-88138000D03*
X74168000Y-82931000D03*
X86868000Y-79375000D03*
X70485000Y-70358000D03*
X57912000Y-70739000D03*
X53848000Y-72136000D03*
X52070000Y-99187000D03*
X51181000Y-93472000D03*
X65532000Y-97155000D03*
X60198000Y-93091000D03*
X79502000Y-95377000D03*
X61976000Y-102362000D03*
X59944000Y-102362000D03*
X48133000Y-104140000D03*
X75819000Y-99441000D03*
X81661000Y-99441000D03*
X93726000Y-67818000D03*
X93726000Y-99568000D03*
X48260000Y-78359000D03*
X48768000Y-80645000D03*
X74803000Y-74422000D03*
X75692000Y-73406000D03*
X63881000Y-71501000D03*
X57023000Y-74803000D03*
X64643000Y-67691000D03*
X67310000Y-67818000D03*
X72009000Y-107188000D03*
X63881000Y-107315000D03*
X55499000Y-107061000D03*
X60071000Y-107061000D03*
X67945000Y-111633000D03*
X67945000Y-102997000D03*
X63500000Y-104013000D03*
X57785000Y-104013000D03*
X55626000Y-102362000D03*
X83312000Y-114046000D03*
X75184000Y-67818000D03*
X48260000Y-67818000D03*
X79502000Y-91059000D03*
X58902600Y-98094800D03*
X59918600Y-99593400D03*
X56667400Y-98120200D03*
X55651400Y-99593400D03*
X56692800Y-90932000D03*
X54508400Y-89712800D03*
X50977800Y-88163400D03*
X84963000Y-84328000D03*
X71856600Y-78689200D03*
X64465200Y-80162400D03*
X66014600Y-80924400D03*
X62280800Y-79552800D03*
X62052200Y-75869800D03*
X68453000Y-77774800D03*
X64998600Y-77012800D03*
X56235600Y-79476600D03*
X52603400Y-80746600D03*
X47498000Y-82194400D03*
X45237400Y-88900000D03*
X71653400Y-99618800D03*
X67437000Y-90805000D03*
X72009000Y-91059000D03*
X75565000Y-87122000D03*
X77216000Y-89154000D03*
X74422000Y-90932000D03*
X75184000Y-83820000D03*
X75057000Y-78486000D03*
X82042000Y-82169000D03*
X78867000Y-83439000D03*
X76962000Y-85598000D03*
X78994000Y-87376000D03*
X88773000Y-86487000D03*
X88773000Y-88900000D03*
X80264000Y-89027000D03*
X88773000Y-91313000D03*
X82169000Y-91059000D03*
X74422000Y-93599000D03*
X71374000Y-97155000D03*
X68199000Y-93599000D03*
X71755000Y-93599000D03*
X65532000Y-93980000D03*
X63119000Y-90805000D03*
X56388000Y-86995000D03*
X60706000Y-86741000D03*
X60706000Y-88392000D03*
X59309000Y-86741000D03*
X66167000Y-85471000D03*
X66294000Y-83312000D03*
X66421000Y-86868000D03*
X69850000Y-85471000D03*
X73787000Y-85344000D03*
X72771000Y-84455000D03*
X72263000Y-82296000D03*
X72771000Y-81534000D03*
X69850000Y-80899000D03*
X71882000Y-77343000D03*
X70485000Y-74168000D03*
%TO.N,+12V*%
X80518000Y-74930000D03*
X80518000Y-66294000D03*
%TO.N,LOAD_ENABLE*%
X81661000Y-74930000D03*
X81661000Y-66294000D03*
%TO.N,+12V*%
X76200000Y-84582000D03*
X73152000Y-90932000D03*
X73152000Y-93726000D03*
X74422000Y-86360000D03*
%TO.N,Net-(RV1-Pad3)*%
X63500000Y-79375000D03*
X65024000Y-83185000D03*
%TO.N,Load-*%
X59182000Y-74549000D03*
X56642000Y-77089000D03*
%TO.N,Net-(U2-Pad8)*%
X66548000Y-89662000D03*
X51181000Y-85725000D03*
%TO.N,Net-(C8-Pad2)*%
X62738000Y-74422000D03*
X64262000Y-74422000D03*
%TO.N,/Vmeas*%
X77978000Y-74168000D03*
X76200000Y-75184000D03*
%TO.N,/Vref*%
X79121000Y-71374000D03*
X71628000Y-75946000D03*
%TO.N,Vofs*%
X51181000Y-84455000D03*
X73787000Y-78740000D03*
%TO.N,SHUNT_SELECT2*%
X78232000Y-88392000D03*
X80899000Y-91059000D03*
%TO.N,Vconst_ENABLE*%
X65405000Y-92710000D03*
X68199000Y-91948000D03*
%TO.N,Load-*%
X52959000Y-86995000D03*
X43180000Y-86995000D03*
%TO.N,/MOS-*%
X52959000Y-83185000D03*
X43180000Y-83185000D03*
%TD*%
D27*
%TO.N,LOAD_ENABLE*%
X81661000Y-74930000D02*
X81661000Y-66294000D01*
%TO.N,+12V*%
X80518000Y-66294000D02*
X80518000Y-74930000D01*
D28*
%TO.N,Vofs*%
X83900000Y-77470000D02*
X90170000Y-71200000D01*
X79248000Y-77470000D02*
X83900000Y-77470000D01*
%TO.N,/Vmeas*%
X76962000Y-75184000D02*
X77978000Y-74168000D01*
X76200000Y-75184000D02*
X76962000Y-75184000D01*
%TO.N,Net-(RV1-Pad3)*%
X65024000Y-83185000D02*
X63500000Y-81661000D01*
X63500000Y-81661000D02*
X63500000Y-79375000D01*
%TO.N,Vofs*%
X71374000Y-84455000D02*
X51181000Y-84455000D01*
X73787000Y-82042000D02*
X71374000Y-84455000D01*
X73787000Y-78740000D02*
X73787000Y-82042000D01*
%TO.N,/Vref*%
X76200000Y-71374000D02*
X71628000Y-75946000D01*
X79121000Y-71374000D02*
X76200000Y-71374000D01*
D27*
%TO.N,+12V*%
X73152000Y-93726000D02*
X73152000Y-90932000D01*
X74422000Y-86360000D02*
X76200000Y-84582000D01*
D28*
%TO.N,/MOS-*%
X43180000Y-83185000D02*
X52959000Y-83185000D01*
%TO.N,Load-*%
X43180000Y-86995000D02*
X52959000Y-86995000D01*
D27*
X59182000Y-74549000D02*
X56642000Y-77089000D01*
D28*
%TO.N,Net-(U2-Pad8)*%
X56769000Y-85725000D02*
X51181000Y-85725000D01*
X60706000Y-89662000D02*
X56769000Y-85725000D01*
X66548000Y-89662000D02*
X60706000Y-89662000D01*
D27*
%TO.N,Net-(C8-Pad2)*%
X64262000Y-74422000D02*
X62738000Y-74422000D01*
D28*
%TO.N,SHUNT_SELECT2*%
X80899000Y-91059000D02*
X78232000Y-88392000D01*
%TO.N,Vconst_ENABLE*%
X67437000Y-92710000D02*
X65405000Y-92710000D01*
X68199000Y-91948000D02*
X67437000Y-92710000D01*
%TD*%
%TA.AperFunction,Conductor*%
%TO.N,Load-*%
G36*
X42179931Y-88920002D02*
G01*
X42200905Y-88936905D01*
X44921095Y-91657095D01*
X44955121Y-91719407D01*
X44958000Y-91746190D01*
X44958000Y-102998000D01*
X44937998Y-103066121D01*
X44884342Y-103112614D01*
X44832000Y-103124000D01*
X31368000Y-103124000D01*
X31299879Y-103103998D01*
X31253386Y-103050342D01*
X31242000Y-102998000D01*
X31242000Y-91746190D01*
X31262002Y-91678069D01*
X31278905Y-91657095D01*
X33999095Y-88936905D01*
X34061407Y-88902879D01*
X34088190Y-88900000D01*
X42111810Y-88900000D01*
X42179931Y-88920002D01*
G37*
%TD.AperFunction*%
%TD*%
%TA.AperFunction,Conductor*%
%TO.N,/MOS+*%
G36*
X45227931Y-51836002D02*
G01*
X45248905Y-51852905D01*
X48768000Y-55372000D01*
X52017810Y-55372000D01*
X52085931Y-55392002D01*
X52106905Y-55408905D01*
X52287095Y-55589095D01*
X52321121Y-55651407D01*
X52324000Y-55678190D01*
X52324000Y-58621810D01*
X52303998Y-58689931D01*
X52287095Y-58710905D01*
X52106905Y-58891095D01*
X52044593Y-58925121D01*
X52017810Y-58928000D01*
X48768000Y-58928000D01*
X45248905Y-62447095D01*
X45186593Y-62481121D01*
X45159810Y-62484000D01*
X31368000Y-62484000D01*
X31299879Y-62463998D01*
X31253386Y-62410342D01*
X31242000Y-62358000D01*
X31242000Y-51942000D01*
X31262002Y-51873879D01*
X31315658Y-51827386D01*
X31368000Y-51816000D01*
X45159810Y-51816000D01*
X45227931Y-51836002D01*
G37*
%TD.AperFunction*%
%TD*%
%TA.AperFunction,Conductor*%
%TO.N,/Load+*%
G36*
X67506121Y-31262002D02*
G01*
X67552614Y-31315658D01*
X67564000Y-31368000D01*
X67564000Y-53033810D01*
X67543998Y-53101931D01*
X67527095Y-53122905D01*
X67346905Y-53303095D01*
X67284593Y-53337121D01*
X67257810Y-53340000D01*
X63298190Y-53340000D01*
X63230069Y-53319998D01*
X63209095Y-53303095D01*
X56932905Y-47026905D01*
X56898879Y-46964593D01*
X56896000Y-46937810D01*
X56896000Y-31368000D01*
X56916002Y-31299879D01*
X56969658Y-31253386D01*
X57022000Y-31242000D01*
X67438000Y-31242000D01*
X67506121Y-31262002D01*
G37*
%TD.AperFunction*%
%TD*%
%TA.AperFunction,Conductor*%
%TO.N,/Vsens*%
G36*
X71748231Y-31262002D02*
G01*
X71794724Y-31315658D01*
X71804828Y-31385932D01*
X71775334Y-31450512D01*
X71738193Y-31479814D01*
X71680669Y-31509696D01*
X71673097Y-31514335D01*
X71542292Y-31607810D01*
X71533889Y-31618533D01*
X71540869Y-31631659D01*
X72637188Y-32727978D01*
X72651132Y-32735592D01*
X72652965Y-32735461D01*
X72659580Y-32731210D01*
X73759129Y-31631661D01*
X73765983Y-31619109D01*
X73757776Y-31608039D01*
X73676230Y-31545805D01*
X73668811Y-31540932D01*
X73556322Y-31477935D01*
X73506660Y-31427198D01*
X73492312Y-31357666D01*
X73517834Y-31291415D01*
X73575122Y-31249480D01*
X73617888Y-31242000D01*
X78780110Y-31242000D01*
X78848231Y-31262002D01*
X78894724Y-31315658D01*
X78904828Y-31385932D01*
X78875334Y-31450512D01*
X78838193Y-31479814D01*
X78780669Y-31509696D01*
X78773097Y-31514335D01*
X78642292Y-31607810D01*
X78633889Y-31618533D01*
X78640869Y-31631659D01*
X79737188Y-32727978D01*
X79751132Y-32735592D01*
X79752965Y-32735461D01*
X79759580Y-32731210D01*
X80859129Y-31631661D01*
X80865983Y-31619109D01*
X80857776Y-31608039D01*
X80776230Y-31545805D01*
X80768811Y-31540932D01*
X80656322Y-31477935D01*
X80606660Y-31427198D01*
X80592312Y-31357666D01*
X80617834Y-31291415D01*
X80675122Y-31249480D01*
X80717888Y-31242000D01*
X82043000Y-31242000D01*
X82111121Y-31262002D01*
X82157614Y-31315658D01*
X82169000Y-31368000D01*
X82169000Y-44832000D01*
X82148998Y-44900121D01*
X82095342Y-44946614D01*
X82043000Y-44958000D01*
X80726671Y-44958000D01*
X80658550Y-44937998D01*
X80612057Y-44884342D01*
X80601953Y-44814068D01*
X80631447Y-44749488D01*
X80665690Y-44723333D01*
X80665029Y-44722175D01*
X80676619Y-44715564D01*
X80859218Y-44593556D01*
X80867506Y-44583638D01*
X80860249Y-44569459D01*
X79762812Y-43472022D01*
X79748868Y-43464408D01*
X79747035Y-43464539D01*
X79740420Y-43468790D01*
X78640070Y-44569140D01*
X78632904Y-44582263D01*
X78640294Y-44592566D01*
X78675455Y-44621192D01*
X78682731Y-44626305D01*
X78845092Y-44724054D01*
X78893135Y-44776325D01*
X78905292Y-44846273D01*
X78877702Y-44911690D01*
X78819125Y-44951805D01*
X78780103Y-44958000D01*
X73626671Y-44958000D01*
X73558550Y-44937998D01*
X73512057Y-44884342D01*
X73501953Y-44814068D01*
X73531447Y-44749488D01*
X73565690Y-44723333D01*
X73565029Y-44722175D01*
X73576619Y-44715564D01*
X73759218Y-44593556D01*
X73767506Y-44583638D01*
X73760249Y-44569459D01*
X72662812Y-43472022D01*
X72648868Y-43464408D01*
X72647035Y-43464539D01*
X72640420Y-43468790D01*
X71540070Y-44569140D01*
X71532904Y-44582263D01*
X71540294Y-44592566D01*
X71575455Y-44621192D01*
X71582731Y-44626305D01*
X71745092Y-44724054D01*
X71793135Y-44776325D01*
X71805292Y-44846273D01*
X71777702Y-44911690D01*
X71719125Y-44951805D01*
X71680103Y-44958000D01*
X70357000Y-44958000D01*
X70288879Y-44937998D01*
X70242386Y-44884342D01*
X70231000Y-44832000D01*
X70231000Y-43045942D01*
X70788348Y-43045942D01*
X70798328Y-43299960D01*
X70799302Y-43308784D01*
X70844978Y-43558875D01*
X70847182Y-43567462D01*
X70927636Y-43808613D01*
X70931040Y-43816831D01*
X71044667Y-44044235D01*
X71049185Y-44051874D01*
X71157294Y-44208296D01*
X71167612Y-44216647D01*
X71181267Y-44209523D01*
X72277978Y-43112812D01*
X72284356Y-43101132D01*
X73014408Y-43101132D01*
X73014539Y-43102965D01*
X73018790Y-43109580D01*
X74120027Y-44210817D01*
X74133428Y-44218135D01*
X74143329Y-44211149D01*
X74154127Y-44198305D01*
X74159353Y-44191110D01*
X74293867Y-43975425D01*
X74298038Y-43967547D01*
X74400817Y-43735065D01*
X74403833Y-43726688D01*
X74472832Y-43482034D01*
X74474636Y-43473326D01*
X74508643Y-43220145D01*
X74509171Y-43213752D01*
X74512645Y-43103222D01*
X74512518Y-43096779D01*
X74508919Y-43045942D01*
X77888348Y-43045942D01*
X77898328Y-43299960D01*
X77899302Y-43308784D01*
X77944978Y-43558875D01*
X77947182Y-43567462D01*
X78027636Y-43808613D01*
X78031040Y-43816831D01*
X78144667Y-44044235D01*
X78149185Y-44051874D01*
X78257294Y-44208296D01*
X78267612Y-44216647D01*
X78281267Y-44209523D01*
X79377978Y-43112812D01*
X79384356Y-43101132D01*
X80114408Y-43101132D01*
X80114539Y-43102965D01*
X80118790Y-43109580D01*
X81220027Y-44210817D01*
X81233428Y-44218135D01*
X81243329Y-44211149D01*
X81254127Y-44198305D01*
X81259353Y-44191110D01*
X81393867Y-43975425D01*
X81398038Y-43967547D01*
X81500817Y-43735065D01*
X81503833Y-43726688D01*
X81572832Y-43482034D01*
X81574636Y-43473326D01*
X81608643Y-43220145D01*
X81609171Y-43213752D01*
X81612645Y-43103222D01*
X81612518Y-43096779D01*
X81594478Y-42841986D01*
X81593225Y-42833183D01*
X81539720Y-42584662D01*
X81537241Y-42576129D01*
X81449254Y-42337630D01*
X81445599Y-42329535D01*
X81324881Y-42105807D01*
X81320122Y-42098309D01*
X81242004Y-41992545D01*
X81230876Y-41984103D01*
X81218283Y-41990927D01*
X80122022Y-43087188D01*
X80114408Y-43101132D01*
X79384356Y-43101132D01*
X79385592Y-43098868D01*
X79385461Y-43097035D01*
X79381210Y-43090420D01*
X78281423Y-41990633D01*
X78268582Y-41983621D01*
X78257893Y-41991416D01*
X78212115Y-42049485D01*
X78207122Y-42056833D01*
X78079440Y-42276655D01*
X78075532Y-42284629D01*
X77980097Y-42520247D01*
X77977348Y-42528709D01*
X77916067Y-42775413D01*
X77914538Y-42784174D01*
X77888627Y-43037059D01*
X77888348Y-43045942D01*
X74508919Y-43045942D01*
X74494478Y-42841986D01*
X74493225Y-42833183D01*
X74439720Y-42584662D01*
X74437241Y-42576129D01*
X74349254Y-42337630D01*
X74345599Y-42329535D01*
X74224881Y-42105807D01*
X74220122Y-42098309D01*
X74142004Y-41992545D01*
X74130876Y-41984103D01*
X74118283Y-41990927D01*
X73022022Y-43087188D01*
X73014408Y-43101132D01*
X72284356Y-43101132D01*
X72285592Y-43098868D01*
X72285461Y-43097035D01*
X72281210Y-43090420D01*
X71181423Y-41990633D01*
X71168582Y-41983621D01*
X71157893Y-41991416D01*
X71112115Y-42049485D01*
X71107122Y-42056833D01*
X70979440Y-42276655D01*
X70975532Y-42284629D01*
X70880097Y-42520247D01*
X70877348Y-42528709D01*
X70816067Y-42775413D01*
X70814538Y-42784174D01*
X70788627Y-43037059D01*
X70788348Y-43045942D01*
X70231000Y-43045942D01*
X70231000Y-41618533D01*
X71533889Y-41618533D01*
X71540869Y-41631659D01*
X72637188Y-42727978D01*
X72651132Y-42735592D01*
X72652965Y-42735461D01*
X72659580Y-42731210D01*
X73759129Y-41631661D01*
X73765983Y-41619109D01*
X73765556Y-41618533D01*
X78633889Y-41618533D01*
X78640869Y-41631659D01*
X79737188Y-42727978D01*
X79751132Y-42735592D01*
X79752965Y-42735461D01*
X79759580Y-42731210D01*
X80859129Y-41631661D01*
X80865983Y-41619109D01*
X80857776Y-41608039D01*
X80776230Y-41545805D01*
X80768801Y-41540925D01*
X80547005Y-41416713D01*
X80538971Y-41412932D01*
X80301865Y-41321203D01*
X80293392Y-41318596D01*
X80045736Y-41261193D01*
X80036960Y-41259803D01*
X79783691Y-41237868D01*
X79774820Y-41237728D01*
X79520976Y-41251698D01*
X79512174Y-41252810D01*
X79262832Y-41302408D01*
X79254279Y-41304748D01*
X79014421Y-41388978D01*
X79006255Y-41392512D01*
X78780669Y-41509696D01*
X78773097Y-41514335D01*
X78642292Y-41607810D01*
X78633889Y-41618533D01*
X73765556Y-41618533D01*
X73757776Y-41608039D01*
X73676230Y-41545805D01*
X73668801Y-41540925D01*
X73447005Y-41416713D01*
X73438971Y-41412932D01*
X73201865Y-41321203D01*
X73193392Y-41318596D01*
X72945736Y-41261193D01*
X72936960Y-41259803D01*
X72683691Y-41237868D01*
X72674820Y-41237728D01*
X72420976Y-41251698D01*
X72412174Y-41252810D01*
X72162832Y-41302408D01*
X72154279Y-41304748D01*
X71914421Y-41388978D01*
X71906255Y-41392512D01*
X71680669Y-41509696D01*
X71673097Y-41514335D01*
X71542292Y-41607810D01*
X71533889Y-41618533D01*
X70231000Y-41618533D01*
X70231000Y-39582263D01*
X71532904Y-39582263D01*
X71540294Y-39592566D01*
X71575455Y-39621192D01*
X71582731Y-39626305D01*
X71800514Y-39757421D01*
X71808428Y-39761454D01*
X72042523Y-39860581D01*
X72050928Y-39863458D01*
X72296650Y-39928610D01*
X72305382Y-39930276D01*
X72557835Y-39960155D01*
X72566703Y-39960573D01*
X72820843Y-39954584D01*
X72829698Y-39953747D01*
X73080459Y-39912009D01*
X73089093Y-39909936D01*
X73331477Y-39833280D01*
X73339739Y-39830009D01*
X73568895Y-39719970D01*
X73576619Y-39715564D01*
X73759218Y-39593556D01*
X73767506Y-39583638D01*
X73766802Y-39582263D01*
X78632904Y-39582263D01*
X78640294Y-39592566D01*
X78675455Y-39621192D01*
X78682731Y-39626305D01*
X78900514Y-39757421D01*
X78908428Y-39761454D01*
X79142523Y-39860581D01*
X79150928Y-39863458D01*
X79396650Y-39928610D01*
X79405382Y-39930276D01*
X79657835Y-39960155D01*
X79666703Y-39960573D01*
X79920843Y-39954584D01*
X79929698Y-39953747D01*
X80180459Y-39912009D01*
X80189093Y-39909936D01*
X80431477Y-39833280D01*
X80439739Y-39830009D01*
X80668895Y-39719970D01*
X80676619Y-39715564D01*
X80859218Y-39593556D01*
X80867506Y-39583638D01*
X80860249Y-39569459D01*
X79762812Y-38472022D01*
X79748868Y-38464408D01*
X79747035Y-38464539D01*
X79740420Y-38468790D01*
X78640070Y-39569140D01*
X78632904Y-39582263D01*
X73766802Y-39582263D01*
X73760249Y-39569459D01*
X72662812Y-38472022D01*
X72648868Y-38464408D01*
X72647035Y-38464539D01*
X72640420Y-38468790D01*
X71540070Y-39569140D01*
X71532904Y-39582263D01*
X70231000Y-39582263D01*
X70231000Y-38045942D01*
X70788348Y-38045942D01*
X70798328Y-38299960D01*
X70799302Y-38308784D01*
X70844978Y-38558875D01*
X70847182Y-38567462D01*
X70927636Y-38808613D01*
X70931040Y-38816831D01*
X71044667Y-39044235D01*
X71049185Y-39051874D01*
X71157294Y-39208296D01*
X71167612Y-39216647D01*
X71181267Y-39209523D01*
X72277978Y-38112812D01*
X72284356Y-38101132D01*
X73014408Y-38101132D01*
X73014539Y-38102965D01*
X73018790Y-38109580D01*
X74120027Y-39210817D01*
X74133428Y-39218135D01*
X74143329Y-39211149D01*
X74154127Y-39198305D01*
X74159353Y-39191110D01*
X74293867Y-38975425D01*
X74298038Y-38967547D01*
X74400817Y-38735065D01*
X74403833Y-38726688D01*
X74472832Y-38482034D01*
X74474636Y-38473326D01*
X74508643Y-38220145D01*
X74509171Y-38213752D01*
X74512645Y-38103222D01*
X74512518Y-38096779D01*
X74508919Y-38045942D01*
X77888348Y-38045942D01*
X77898328Y-38299960D01*
X77899302Y-38308784D01*
X77944978Y-38558875D01*
X77947182Y-38567462D01*
X78027636Y-38808613D01*
X78031040Y-38816831D01*
X78144667Y-39044235D01*
X78149185Y-39051874D01*
X78257294Y-39208296D01*
X78267612Y-39216647D01*
X78281267Y-39209523D01*
X79377978Y-38112812D01*
X79384356Y-38101132D01*
X80114408Y-38101132D01*
X80114539Y-38102965D01*
X80118790Y-38109580D01*
X81220027Y-39210817D01*
X81233428Y-39218135D01*
X81243329Y-39211149D01*
X81254127Y-39198305D01*
X81259353Y-39191110D01*
X81393867Y-38975425D01*
X81398038Y-38967547D01*
X81500817Y-38735065D01*
X81503833Y-38726688D01*
X81572832Y-38482034D01*
X81574636Y-38473326D01*
X81608643Y-38220145D01*
X81609171Y-38213752D01*
X81612645Y-38103222D01*
X81612518Y-38096779D01*
X81594478Y-37841986D01*
X81593225Y-37833183D01*
X81539720Y-37584662D01*
X81537241Y-37576129D01*
X81449254Y-37337630D01*
X81445599Y-37329535D01*
X81324881Y-37105807D01*
X81320122Y-37098309D01*
X81242004Y-36992545D01*
X81230876Y-36984103D01*
X81218283Y-36990927D01*
X80122022Y-38087188D01*
X80114408Y-38101132D01*
X79384356Y-38101132D01*
X79385592Y-38098868D01*
X79385461Y-38097035D01*
X79381210Y-38090420D01*
X78281423Y-36990633D01*
X78268582Y-36983621D01*
X78257893Y-36991416D01*
X78212115Y-37049485D01*
X78207122Y-37056833D01*
X78079440Y-37276655D01*
X78075532Y-37284629D01*
X77980097Y-37520247D01*
X77977348Y-37528709D01*
X77916067Y-37775413D01*
X77914538Y-37784174D01*
X77888627Y-38037059D01*
X77888348Y-38045942D01*
X74508919Y-38045942D01*
X74494478Y-37841986D01*
X74493225Y-37833183D01*
X74439720Y-37584662D01*
X74437241Y-37576129D01*
X74349254Y-37337630D01*
X74345599Y-37329535D01*
X74224881Y-37105807D01*
X74220122Y-37098309D01*
X74142004Y-36992545D01*
X74130876Y-36984103D01*
X74118283Y-36990927D01*
X73022022Y-38087188D01*
X73014408Y-38101132D01*
X72284356Y-38101132D01*
X72285592Y-38098868D01*
X72285461Y-38097035D01*
X72281210Y-38090420D01*
X71181423Y-36990633D01*
X71168582Y-36983621D01*
X71157893Y-36991416D01*
X71112115Y-37049485D01*
X71107122Y-37056833D01*
X70979440Y-37276655D01*
X70975532Y-37284629D01*
X70880097Y-37520247D01*
X70877348Y-37528709D01*
X70816067Y-37775413D01*
X70814538Y-37784174D01*
X70788627Y-38037059D01*
X70788348Y-38045942D01*
X70231000Y-38045942D01*
X70231000Y-36618533D01*
X71533889Y-36618533D01*
X71540869Y-36631659D01*
X72637188Y-37727978D01*
X72651132Y-37735592D01*
X72652965Y-37735461D01*
X72659580Y-37731210D01*
X73759129Y-36631661D01*
X73765983Y-36619109D01*
X73765556Y-36618533D01*
X78633889Y-36618533D01*
X78640869Y-36631659D01*
X79737188Y-37727978D01*
X79751132Y-37735592D01*
X79752965Y-37735461D01*
X79759580Y-37731210D01*
X80859129Y-36631661D01*
X80865983Y-36619109D01*
X80857776Y-36608039D01*
X80776230Y-36545805D01*
X80768801Y-36540925D01*
X80547005Y-36416713D01*
X80538971Y-36412932D01*
X80301865Y-36321203D01*
X80293392Y-36318596D01*
X80045736Y-36261193D01*
X80036960Y-36259803D01*
X79783691Y-36237868D01*
X79774820Y-36237728D01*
X79520976Y-36251698D01*
X79512174Y-36252810D01*
X79262832Y-36302408D01*
X79254279Y-36304748D01*
X79014421Y-36388978D01*
X79006255Y-36392512D01*
X78780669Y-36509696D01*
X78773097Y-36514335D01*
X78642292Y-36607810D01*
X78633889Y-36618533D01*
X73765556Y-36618533D01*
X73757776Y-36608039D01*
X73676230Y-36545805D01*
X73668801Y-36540925D01*
X73447005Y-36416713D01*
X73438971Y-36412932D01*
X73201865Y-36321203D01*
X73193392Y-36318596D01*
X72945736Y-36261193D01*
X72936960Y-36259803D01*
X72683691Y-36237868D01*
X72674820Y-36237728D01*
X72420976Y-36251698D01*
X72412174Y-36252810D01*
X72162832Y-36302408D01*
X72154279Y-36304748D01*
X71914421Y-36388978D01*
X71906255Y-36392512D01*
X71680669Y-36509696D01*
X71673097Y-36514335D01*
X71542292Y-36607810D01*
X71533889Y-36618533D01*
X70231000Y-36618533D01*
X70231000Y-34582263D01*
X71532904Y-34582263D01*
X71540294Y-34592566D01*
X71575455Y-34621192D01*
X71582731Y-34626305D01*
X71800514Y-34757421D01*
X71808428Y-34761454D01*
X72042523Y-34860581D01*
X72050928Y-34863458D01*
X72296650Y-34928610D01*
X72305382Y-34930276D01*
X72557835Y-34960155D01*
X72566703Y-34960573D01*
X72820843Y-34954584D01*
X72829698Y-34953747D01*
X73080459Y-34912009D01*
X73089093Y-34909936D01*
X73331477Y-34833280D01*
X73339739Y-34830009D01*
X73568895Y-34719970D01*
X73576619Y-34715564D01*
X73759218Y-34593556D01*
X73767506Y-34583638D01*
X73766802Y-34582263D01*
X78632904Y-34582263D01*
X78640294Y-34592566D01*
X78675455Y-34621192D01*
X78682731Y-34626305D01*
X78900514Y-34757421D01*
X78908428Y-34761454D01*
X79142523Y-34860581D01*
X79150928Y-34863458D01*
X79396650Y-34928610D01*
X79405382Y-34930276D01*
X79657835Y-34960155D01*
X79666703Y-34960573D01*
X79920843Y-34954584D01*
X79929698Y-34953747D01*
X80180459Y-34912009D01*
X80189093Y-34909936D01*
X80431477Y-34833280D01*
X80439739Y-34830009D01*
X80668895Y-34719970D01*
X80676619Y-34715564D01*
X80859218Y-34593556D01*
X80867506Y-34583638D01*
X80860249Y-34569459D01*
X79762812Y-33472022D01*
X79748868Y-33464408D01*
X79747035Y-33464539D01*
X79740420Y-33468790D01*
X78640070Y-34569140D01*
X78632904Y-34582263D01*
X73766802Y-34582263D01*
X73760249Y-34569459D01*
X72662812Y-33472022D01*
X72648868Y-33464408D01*
X72647035Y-33464539D01*
X72640420Y-33468790D01*
X71540070Y-34569140D01*
X71532904Y-34582263D01*
X70231000Y-34582263D01*
X70231000Y-33045942D01*
X70788348Y-33045942D01*
X70798328Y-33299960D01*
X70799302Y-33308784D01*
X70844978Y-33558875D01*
X70847182Y-33567462D01*
X70927636Y-33808613D01*
X70931040Y-33816831D01*
X71044667Y-34044235D01*
X71049185Y-34051874D01*
X71157294Y-34208296D01*
X71167612Y-34216647D01*
X71181267Y-34209523D01*
X72277978Y-33112812D01*
X72284356Y-33101132D01*
X73014408Y-33101132D01*
X73014539Y-33102965D01*
X73018790Y-33109580D01*
X74120027Y-34210817D01*
X74133428Y-34218135D01*
X74143329Y-34211149D01*
X74154127Y-34198305D01*
X74159353Y-34191110D01*
X74293867Y-33975425D01*
X74298038Y-33967547D01*
X74400817Y-33735065D01*
X74403833Y-33726688D01*
X74472832Y-33482034D01*
X74474636Y-33473326D01*
X74508643Y-33220145D01*
X74509171Y-33213752D01*
X74512645Y-33103222D01*
X74512518Y-33096779D01*
X74508919Y-33045942D01*
X77888348Y-33045942D01*
X77898328Y-33299960D01*
X77899302Y-33308784D01*
X77944978Y-33558875D01*
X77947182Y-33567462D01*
X78027636Y-33808613D01*
X78031040Y-33816831D01*
X78144667Y-34044235D01*
X78149185Y-34051874D01*
X78257294Y-34208296D01*
X78267612Y-34216647D01*
X78281267Y-34209523D01*
X79377978Y-33112812D01*
X79384356Y-33101132D01*
X80114408Y-33101132D01*
X80114539Y-33102965D01*
X80118790Y-33109580D01*
X81220027Y-34210817D01*
X81233428Y-34218135D01*
X81243329Y-34211149D01*
X81254127Y-34198305D01*
X81259353Y-34191110D01*
X81393867Y-33975425D01*
X81398038Y-33967547D01*
X81500817Y-33735065D01*
X81503833Y-33726688D01*
X81572832Y-33482034D01*
X81574636Y-33473326D01*
X81608643Y-33220145D01*
X81609171Y-33213752D01*
X81612645Y-33103222D01*
X81612518Y-33096779D01*
X81594478Y-32841986D01*
X81593225Y-32833183D01*
X81539720Y-32584662D01*
X81537241Y-32576129D01*
X81449254Y-32337630D01*
X81445599Y-32329535D01*
X81324881Y-32105807D01*
X81320122Y-32098309D01*
X81242004Y-31992545D01*
X81230876Y-31984103D01*
X81218283Y-31990927D01*
X80122022Y-33087188D01*
X80114408Y-33101132D01*
X79384356Y-33101132D01*
X79385592Y-33098868D01*
X79385461Y-33097035D01*
X79381210Y-33090420D01*
X78281423Y-31990633D01*
X78268582Y-31983621D01*
X78257893Y-31991416D01*
X78212115Y-32049485D01*
X78207122Y-32056833D01*
X78079440Y-32276655D01*
X78075532Y-32284629D01*
X77980097Y-32520247D01*
X77977348Y-32528709D01*
X77916067Y-32775413D01*
X77914538Y-32784174D01*
X77888627Y-33037059D01*
X77888348Y-33045942D01*
X74508919Y-33045942D01*
X74494478Y-32841986D01*
X74493225Y-32833183D01*
X74439720Y-32584662D01*
X74437241Y-32576129D01*
X74349254Y-32337630D01*
X74345599Y-32329535D01*
X74224881Y-32105807D01*
X74220122Y-32098309D01*
X74142004Y-31992545D01*
X74130876Y-31984103D01*
X74118283Y-31990927D01*
X73022022Y-33087188D01*
X73014408Y-33101132D01*
X72284356Y-33101132D01*
X72285592Y-33098868D01*
X72285461Y-33097035D01*
X72281210Y-33090420D01*
X71181423Y-31990633D01*
X71168582Y-31983621D01*
X71157893Y-31991416D01*
X71112115Y-32049485D01*
X71107122Y-32056833D01*
X70979440Y-32276655D01*
X70975532Y-32284629D01*
X70880097Y-32520247D01*
X70877348Y-32528709D01*
X70816067Y-32775413D01*
X70814538Y-32784174D01*
X70788627Y-33037059D01*
X70788348Y-33045942D01*
X70231000Y-33045942D01*
X70231000Y-31368000D01*
X70251002Y-31299879D01*
X70304658Y-31253386D01*
X70357000Y-31242000D01*
X71680110Y-31242000D01*
X71748231Y-31262002D01*
G37*
%TD.AperFunction*%
%TD*%
%TA.AperFunction,Conductor*%
%TO.N,GND*%
G36*
X79809621Y-67330002D02*
G01*
X79856114Y-67383658D01*
X79867500Y-67436000D01*
X79867500Y-70683917D01*
X79847498Y-70752038D01*
X79793842Y-70798531D01*
X79723568Y-70808635D01*
X79658988Y-70779141D01*
X79652095Y-70772702D01*
X79630733Y-70751191D01*
X79625770Y-70746193D01*
X79614761Y-70739206D01*
X79527639Y-70683917D01*
X79474136Y-70649963D01*
X79444352Y-70639357D01*
X79311586Y-70592081D01*
X79311581Y-70592080D01*
X79304951Y-70589719D01*
X79297965Y-70588886D01*
X79297961Y-70588885D01*
X79170177Y-70573648D01*
X79126624Y-70568455D01*
X79119621Y-70569191D01*
X79119620Y-70569191D01*
X78955025Y-70586490D01*
X78955021Y-70586491D01*
X78948017Y-70587227D01*
X78941346Y-70589498D01*
X78784677Y-70642832D01*
X78784674Y-70642833D01*
X78778007Y-70645103D01*
X78772009Y-70648793D01*
X78772007Y-70648794D01*
X78714916Y-70683917D01*
X78625045Y-70739206D01*
X78524644Y-70837526D01*
X78461981Y-70870894D01*
X78436489Y-70873500D01*
X76270176Y-70873500D01*
X76258296Y-70872172D01*
X76258255Y-70872683D01*
X76249307Y-70871963D01*
X76240552Y-70869982D01*
X76197014Y-70872683D01*
X76187745Y-70873258D01*
X76179943Y-70873500D01*
X76164060Y-70873500D01*
X76159612Y-70874137D01*
X76159610Y-70874137D01*
X76153942Y-70874948D01*
X76143891Y-70875978D01*
X76106420Y-70878303D01*
X76106419Y-70878303D01*
X76097461Y-70878859D01*
X76089017Y-70881907D01*
X76085324Y-70882672D01*
X76070584Y-70886347D01*
X76066968Y-70887404D01*
X76058082Y-70888677D01*
X76015734Y-70907932D01*
X76006367Y-70911745D01*
X75962613Y-70927540D01*
X75955361Y-70932838D01*
X75952015Y-70934617D01*
X75938911Y-70942274D01*
X75935739Y-70944303D01*
X75927572Y-70948016D01*
X75920776Y-70953871D01*
X75920774Y-70953873D01*
X75892321Y-70978390D01*
X75884405Y-70984675D01*
X75877598Y-70989648D01*
X75877591Y-70989654D01*
X75873664Y-70992523D01*
X75862928Y-71003259D01*
X75856082Y-71009616D01*
X75818963Y-71041600D01*
X75814079Y-71049134D01*
X75808181Y-71055896D01*
X75808176Y-71055892D01*
X75799198Y-71066989D01*
X71759181Y-75107005D01*
X71696869Y-75141031D01*
X71655168Y-75143024D01*
X71633624Y-75140455D01*
X71626621Y-75141191D01*
X71626620Y-75141191D01*
X71462025Y-75158490D01*
X71462021Y-75158491D01*
X71455017Y-75159227D01*
X71448346Y-75161498D01*
X71291677Y-75214832D01*
X71291674Y-75214833D01*
X71285007Y-75217103D01*
X71279009Y-75220793D01*
X71279007Y-75220794D01*
X71213301Y-75261217D01*
X71132045Y-75311206D01*
X71127014Y-75316132D01*
X71127011Y-75316135D01*
X71090912Y-75351486D01*
X71003732Y-75436859D01*
X70999913Y-75442784D01*
X70999912Y-75442786D01*
X70919991Y-75566799D01*
X70906446Y-75587817D01*
X70904037Y-75594437D01*
X70904035Y-75594440D01*
X70893499Y-75623389D01*
X70845022Y-75756578D01*
X70822514Y-75934753D01*
X70823201Y-75941760D01*
X70823201Y-75941763D01*
X70826207Y-75972416D01*
X70840039Y-76113486D01*
X70842262Y-76120168D01*
X70842262Y-76120169D01*
X70850967Y-76146336D01*
X70896726Y-76283896D01*
X70900373Y-76289918D01*
X70942879Y-76360103D01*
X70989759Y-76437512D01*
X71114514Y-76566699D01*
X71264789Y-76665036D01*
X71433116Y-76727636D01*
X71440097Y-76728567D01*
X71440099Y-76728568D01*
X71604149Y-76750457D01*
X71604153Y-76750457D01*
X71611130Y-76751388D01*
X71618142Y-76750750D01*
X71618146Y-76750750D01*
X71782960Y-76735751D01*
X71782961Y-76735751D01*
X71789981Y-76735112D01*
X71944563Y-76684885D01*
X71954082Y-76681792D01*
X71960782Y-76679615D01*
X71985239Y-76665036D01*
X72108992Y-76591265D01*
X72108994Y-76591264D01*
X72115044Y-76587657D01*
X72245099Y-76463807D01*
X72262570Y-76437512D01*
X72314000Y-76360103D01*
X72344483Y-76314222D01*
X72362801Y-76266000D01*
X72405757Y-76152919D01*
X72405758Y-76152914D01*
X72408257Y-76146336D01*
X72424344Y-76031871D01*
X72432700Y-75972416D01*
X72432700Y-75972411D01*
X72433251Y-75968493D01*
X72433565Y-75946000D01*
X72432892Y-75940000D01*
X72430466Y-75918367D01*
X72442751Y-75848441D01*
X72466586Y-75815228D01*
X73109061Y-75172753D01*
X75394514Y-75172753D01*
X75395201Y-75179760D01*
X75395201Y-75179763D01*
X75399224Y-75220794D01*
X75412039Y-75351486D01*
X75414262Y-75358168D01*
X75414262Y-75358169D01*
X75462144Y-75502108D01*
X75468726Y-75521896D01*
X75472373Y-75527918D01*
X75558011Y-75669323D01*
X75561759Y-75675512D01*
X75566648Y-75680575D01*
X75566649Y-75680576D01*
X75571721Y-75685828D01*
X75686514Y-75804699D01*
X75836789Y-75903036D01*
X76005116Y-75965636D01*
X76012097Y-75966567D01*
X76012099Y-75966568D01*
X76176149Y-75988457D01*
X76176153Y-75988457D01*
X76183130Y-75989388D01*
X76190142Y-75988750D01*
X76190146Y-75988750D01*
X76354960Y-75973751D01*
X76354961Y-75973751D01*
X76361981Y-75973112D01*
X76532782Y-75917615D01*
X76632607Y-75858108D01*
X76680992Y-75829265D01*
X76680994Y-75829264D01*
X76687044Y-75825657D01*
X76798778Y-75719254D01*
X76861903Y-75686762D01*
X76885670Y-75684500D01*
X76891819Y-75684500D01*
X76903704Y-75685828D01*
X76903745Y-75685318D01*
X76912691Y-75686038D01*
X76921447Y-75688019D01*
X76974263Y-75684742D01*
X76982067Y-75684500D01*
X76997940Y-75684500D01*
X77008052Y-75683052D01*
X77018106Y-75682022D01*
X77046097Y-75680285D01*
X77064538Y-75679141D01*
X77072982Y-75676093D01*
X77076694Y-75675324D01*
X77091399Y-75671657D01*
X77095027Y-75670596D01*
X77103918Y-75669323D01*
X77146282Y-75650061D01*
X77155637Y-75646254D01*
X77190943Y-75633509D01*
X77190947Y-75633507D01*
X77199387Y-75630460D01*
X77206635Y-75625165D01*
X77209975Y-75623389D01*
X77223089Y-75615726D01*
X77226261Y-75613697D01*
X77234428Y-75609984D01*
X77241223Y-75604129D01*
X77241226Y-75604127D01*
X77269675Y-75579613D01*
X77277596Y-75573324D01*
X77284402Y-75568352D01*
X77288336Y-75565478D01*
X77299079Y-75554735D01*
X77305926Y-75548377D01*
X77336237Y-75522259D01*
X77343037Y-75516400D01*
X77347920Y-75508866D01*
X77353819Y-75502104D01*
X77353824Y-75502108D01*
X77362800Y-75491014D01*
X77845893Y-75007921D01*
X77908205Y-74973895D01*
X77947103Y-74972310D01*
X77947103Y-74972309D01*
X77947114Y-74972309D01*
X77951658Y-74972124D01*
X77952608Y-74972251D01*
X77954150Y-74972457D01*
X77954153Y-74972457D01*
X77961130Y-74973388D01*
X77968142Y-74972750D01*
X77968145Y-74972750D01*
X78132960Y-74957751D01*
X78132961Y-74957751D01*
X78139981Y-74957112D01*
X78279541Y-74911766D01*
X78304082Y-74903792D01*
X78310782Y-74901615D01*
X78316833Y-74898008D01*
X78458992Y-74813265D01*
X78458994Y-74813264D01*
X78465044Y-74809657D01*
X78595099Y-74685807D01*
X78613532Y-74658064D01*
X78668193Y-74575792D01*
X78694483Y-74536222D01*
X78722016Y-74463742D01*
X78755757Y-74374919D01*
X78755758Y-74374914D01*
X78758257Y-74368336D01*
X78760419Y-74352955D01*
X78782700Y-74194416D01*
X78782700Y-74194411D01*
X78783251Y-74190493D01*
X78783565Y-74168000D01*
X78763546Y-73989528D01*
X78757427Y-73971955D01*
X78708836Y-73832421D01*
X78704485Y-73819927D01*
X78674225Y-73771500D01*
X78613049Y-73673599D01*
X78609316Y-73667625D01*
X78516487Y-73574146D01*
X78487733Y-73545190D01*
X78487729Y-73545187D01*
X78482770Y-73540193D01*
X78471761Y-73533206D01*
X78424860Y-73503442D01*
X78331136Y-73443963D01*
X78301352Y-73433357D01*
X78168586Y-73386081D01*
X78168581Y-73386080D01*
X78161951Y-73383719D01*
X78154965Y-73382886D01*
X78154961Y-73382885D01*
X78027177Y-73367648D01*
X77983624Y-73362455D01*
X77976621Y-73363191D01*
X77976620Y-73363191D01*
X77812025Y-73380490D01*
X77812021Y-73380491D01*
X77805017Y-73381227D01*
X77798346Y-73383498D01*
X77641677Y-73436832D01*
X77641674Y-73436833D01*
X77635007Y-73439103D01*
X77629009Y-73442793D01*
X77629007Y-73442794D01*
X77558526Y-73486155D01*
X77482045Y-73533206D01*
X77477014Y-73538132D01*
X77477011Y-73538135D01*
X77469807Y-73545190D01*
X77353732Y-73658859D01*
X77349913Y-73664784D01*
X77349912Y-73664786D01*
X77271018Y-73787206D01*
X77256446Y-73809817D01*
X77254037Y-73816437D01*
X77254035Y-73816440D01*
X77227672Y-73888872D01*
X77195022Y-73978578D01*
X77172514Y-74156753D01*
X77173201Y-74163760D01*
X77173201Y-74163763D01*
X77176428Y-74196672D01*
X77163168Y-74266419D01*
X77140124Y-74298062D01*
X76882390Y-74555796D01*
X76820078Y-74589822D01*
X76749263Y-74584757D01*
X76714344Y-74564898D01*
X76709734Y-74561192D01*
X76704770Y-74556193D01*
X76553136Y-74459963D01*
X76502398Y-74441896D01*
X76390586Y-74402081D01*
X76390581Y-74402080D01*
X76383951Y-74399719D01*
X76376965Y-74398886D01*
X76376961Y-74398885D01*
X76249177Y-74383648D01*
X76205624Y-74378455D01*
X76198621Y-74379191D01*
X76198620Y-74379191D01*
X76034025Y-74396490D01*
X76034021Y-74396491D01*
X76027017Y-74397227D01*
X76020346Y-74399498D01*
X75863677Y-74452832D01*
X75863674Y-74452833D01*
X75857007Y-74455103D01*
X75851009Y-74458793D01*
X75851007Y-74458794D01*
X75798713Y-74490966D01*
X75704045Y-74549206D01*
X75699014Y-74554132D01*
X75699011Y-74554135D01*
X75667741Y-74584757D01*
X75575732Y-74674859D01*
X75571913Y-74680784D01*
X75571912Y-74680786D01*
X75503094Y-74787571D01*
X75478446Y-74825817D01*
X75476037Y-74832437D01*
X75476035Y-74832440D01*
X75466233Y-74859371D01*
X75417022Y-74994578D01*
X75394514Y-75172753D01*
X73109061Y-75172753D01*
X76370409Y-71911405D01*
X76432721Y-71877379D01*
X76459504Y-71874500D01*
X78437955Y-71874500D01*
X78506076Y-71894502D01*
X78528592Y-71912973D01*
X78607514Y-71994699D01*
X78757789Y-72093036D01*
X78926116Y-72155636D01*
X78933097Y-72156567D01*
X78933099Y-72156568D01*
X79097149Y-72178457D01*
X79097153Y-72178457D01*
X79104130Y-72179388D01*
X79111142Y-72178750D01*
X79111146Y-72178750D01*
X79275960Y-72163751D01*
X79275961Y-72163751D01*
X79282981Y-72163112D01*
X79396499Y-72126227D01*
X79447082Y-72109792D01*
X79453782Y-72107615D01*
X79485459Y-72088732D01*
X79601992Y-72019265D01*
X79601994Y-72019264D01*
X79608044Y-72015657D01*
X79654607Y-71971315D01*
X79717733Y-71938823D01*
X79788404Y-71945617D01*
X79844183Y-71989539D01*
X79867500Y-72062561D01*
X79867500Y-74424480D01*
X79847411Y-74492735D01*
X79813397Y-74545515D01*
X79796446Y-74571817D01*
X79794037Y-74578437D01*
X79794035Y-74578440D01*
X79775547Y-74629236D01*
X79735022Y-74740578D01*
X79712514Y-74918753D01*
X79713201Y-74925760D01*
X79713201Y-74925763D01*
X79716207Y-74956416D01*
X79730039Y-75097486D01*
X79732262Y-75104168D01*
X79732262Y-75104169D01*
X79778588Y-75243431D01*
X79786726Y-75267896D01*
X79790373Y-75273918D01*
X79831139Y-75341230D01*
X79879759Y-75421512D01*
X79884648Y-75426575D01*
X79884649Y-75426576D01*
X79894579Y-75436859D01*
X80004514Y-75550699D01*
X80154789Y-75649036D01*
X80323116Y-75711636D01*
X80330097Y-75712567D01*
X80330099Y-75712568D01*
X80494149Y-75734457D01*
X80494153Y-75734457D01*
X80501130Y-75735388D01*
X80508142Y-75734750D01*
X80508146Y-75734750D01*
X80672960Y-75719751D01*
X80672961Y-75719751D01*
X80679981Y-75719112D01*
X80850782Y-75663615D01*
X80901286Y-75633509D01*
X80998997Y-75575262D01*
X80998999Y-75575261D01*
X81005044Y-75571657D01*
X81010140Y-75566804D01*
X81014339Y-75563617D01*
X81080693Y-75538365D01*
X81150165Y-75552995D01*
X81159508Y-75558548D01*
X81185050Y-75575262D01*
X81297789Y-75649036D01*
X81466116Y-75711636D01*
X81473097Y-75712567D01*
X81473099Y-75712568D01*
X81637149Y-75734457D01*
X81637153Y-75734457D01*
X81644130Y-75735388D01*
X81651142Y-75734750D01*
X81651146Y-75734750D01*
X81815960Y-75719751D01*
X81815961Y-75719751D01*
X81822981Y-75719112D01*
X81993782Y-75663615D01*
X82044286Y-75633509D01*
X82141992Y-75575265D01*
X82141994Y-75575264D01*
X82148044Y-75571657D01*
X82278099Y-75447807D01*
X82292078Y-75426768D01*
X82346752Y-75344476D01*
X82377483Y-75298222D01*
X82400646Y-75237246D01*
X82438757Y-75136919D01*
X82438758Y-75136914D01*
X82441257Y-75130336D01*
X82448503Y-75078779D01*
X82465700Y-74956416D01*
X82465700Y-74956411D01*
X82466251Y-74952493D01*
X82466446Y-74938529D01*
X82466510Y-74933963D01*
X82466510Y-74933958D01*
X82466565Y-74930000D01*
X82446546Y-74751528D01*
X82440427Y-74733955D01*
X82399129Y-74615364D01*
X82387485Y-74581927D01*
X82383652Y-74575792D01*
X82330646Y-74490966D01*
X82311500Y-74424196D01*
X82311500Y-67436000D01*
X82331502Y-67367879D01*
X82385158Y-67321386D01*
X82437500Y-67310000D01*
X89265172Y-67310000D01*
X89333293Y-67330002D01*
X89379786Y-67383658D01*
X89389890Y-67453932D01*
X89360396Y-67518512D01*
X89335539Y-67540520D01*
X89195425Y-67634850D01*
X89187130Y-67641519D01*
X89028100Y-67793228D01*
X89021059Y-67801186D01*
X88889859Y-67977525D01*
X88884255Y-67986562D01*
X88784643Y-68182484D01*
X88780643Y-68192335D01*
X88715466Y-68402240D01*
X88713183Y-68412624D01*
X88711139Y-68428043D01*
X88713335Y-68442207D01*
X88726522Y-68446000D01*
X91611192Y-68446000D01*
X91624723Y-68442027D01*
X91626248Y-68431420D01*
X91601523Y-68313579D01*
X91598463Y-68303383D01*
X91517737Y-68098971D01*
X91513006Y-68089439D01*
X91398984Y-67901538D01*
X91392720Y-67892948D01*
X91248673Y-67726948D01*
X91241042Y-67719528D01*
X91071089Y-67580174D01*
X91062322Y-67574149D01*
X91011996Y-67545502D01*
X90962689Y-67494420D01*
X90948828Y-67424789D01*
X90974811Y-67358718D01*
X91032391Y-67317184D01*
X91074328Y-67310000D01*
X94108000Y-67310000D01*
X94176121Y-67330002D01*
X94222614Y-67383658D01*
X94234000Y-67436000D01*
X94234000Y-99950000D01*
X94213998Y-100018121D01*
X94160342Y-100064614D01*
X94108000Y-100076000D01*
X91537309Y-100076000D01*
X91469188Y-100055998D01*
X91422695Y-100002342D01*
X91412591Y-99932068D01*
X91436220Y-99874788D01*
X91475137Y-99822481D01*
X91480745Y-99813438D01*
X91580357Y-99617516D01*
X91584357Y-99607665D01*
X91649534Y-99397760D01*
X91651817Y-99387376D01*
X91653861Y-99371957D01*
X91651665Y-99357793D01*
X91638478Y-99354000D01*
X88703808Y-99354000D01*
X88690277Y-99357973D01*
X88688752Y-99368580D01*
X88713477Y-99486421D01*
X88716537Y-99496617D01*
X88797263Y-99701029D01*
X88801994Y-99710561D01*
X88907625Y-99884634D01*
X88925864Y-99953248D01*
X88904113Y-100020830D01*
X88849277Y-100065925D01*
X88799906Y-100076000D01*
X83566000Y-100076000D01*
X83566243Y-100090094D01*
X83593764Y-101686328D01*
X83574940Y-101754783D01*
X83522093Y-101802194D01*
X83467783Y-101814500D01*
X82601608Y-101814500D01*
X82599069Y-101814707D01*
X82599057Y-101814707D01*
X82523453Y-101820857D01*
X82458041Y-101826177D01*
X82237508Y-101882801D01*
X82232405Y-101885137D01*
X82232403Y-101885138D01*
X82158995Y-101918747D01*
X82030488Y-101977582D01*
X81843524Y-102107525D01*
X81682525Y-102268524D01*
X81552582Y-102455488D01*
X81457801Y-102662508D01*
X81401177Y-102883041D01*
X81396178Y-102944509D01*
X81391683Y-102999771D01*
X81389500Y-103026608D01*
X81389500Y-104903392D01*
X81401177Y-105046959D01*
X81457801Y-105267492D01*
X81460137Y-105272595D01*
X81460138Y-105272597D01*
X81462017Y-105276701D01*
X81552582Y-105474512D01*
X81555782Y-105479116D01*
X81555783Y-105479118D01*
X81570280Y-105499976D01*
X81682525Y-105661476D01*
X81843524Y-105822475D01*
X82030488Y-105952418D01*
X82158995Y-106011253D01*
X82232403Y-106044862D01*
X82232405Y-106044863D01*
X82237508Y-106047199D01*
X82458041Y-106103823D01*
X82523453Y-106109143D01*
X82599057Y-106115293D01*
X82599069Y-106115293D01*
X82601608Y-106115500D01*
X83546283Y-106115500D01*
X83614404Y-106135502D01*
X83660897Y-106189158D01*
X83672264Y-106239328D01*
X83814195Y-114471328D01*
X83795371Y-114539783D01*
X83742524Y-114587194D01*
X83688214Y-114599500D01*
X47878000Y-114599500D01*
X47809879Y-114579498D01*
X47763386Y-114525842D01*
X47752000Y-114473500D01*
X47752000Y-112191522D01*
X47772002Y-112123401D01*
X47825658Y-112076908D01*
X47895932Y-112066804D01*
X47915363Y-112071189D01*
X47942236Y-112079533D01*
X47952624Y-112081817D01*
X47968043Y-112083861D01*
X47982207Y-112081665D01*
X47986000Y-112068478D01*
X47986000Y-112066192D01*
X48494000Y-112066192D01*
X48497973Y-112079723D01*
X48508580Y-112081248D01*
X48626421Y-112056523D01*
X48636617Y-112053463D01*
X48841029Y-111972737D01*
X48850561Y-111968006D01*
X49038462Y-111853984D01*
X49047052Y-111847720D01*
X49213052Y-111703673D01*
X49220472Y-111696042D01*
X49359826Y-111526089D01*
X49365850Y-111517322D01*
X49474576Y-111326318D01*
X49479041Y-111316654D01*
X49554031Y-111110059D01*
X49556802Y-111099792D01*
X49596123Y-110882345D01*
X49597056Y-110874116D01*
X49597268Y-110869624D01*
X49593525Y-110856876D01*
X49592135Y-110855671D01*
X49584452Y-110854000D01*
X48512115Y-110854000D01*
X48496876Y-110858475D01*
X48495671Y-110859865D01*
X48494000Y-110867548D01*
X48494000Y-112066192D01*
X47986000Y-112066192D01*
X47986000Y-110327885D01*
X48494000Y-110327885D01*
X48498475Y-110343124D01*
X48499865Y-110344329D01*
X48507548Y-110346000D01*
X49575970Y-110346000D01*
X49590648Y-110341690D01*
X49592711Y-110329807D01*
X49583876Y-110225675D01*
X49582086Y-110215203D01*
X49526870Y-110002465D01*
X49523335Y-109992425D01*
X49433063Y-109792030D01*
X49427894Y-109782744D01*
X49305150Y-109600425D01*
X49298481Y-109592130D01*
X49146772Y-109433100D01*
X49138814Y-109426059D01*
X48962475Y-109294859D01*
X48953438Y-109289255D01*
X48757516Y-109189643D01*
X48747665Y-109185643D01*
X48537760Y-109120466D01*
X48527376Y-109118183D01*
X48511957Y-109116139D01*
X48497793Y-109118335D01*
X48494000Y-109131522D01*
X48494000Y-110327885D01*
X47986000Y-110327885D01*
X47986000Y-109133808D01*
X47982027Y-109120277D01*
X47971420Y-109118752D01*
X47903874Y-109132925D01*
X47833098Y-109127338D01*
X47776578Y-109084373D01*
X47752258Y-109017671D01*
X47752000Y-109009610D01*
X47752000Y-108024961D01*
X76482001Y-108024961D01*
X76482209Y-108030071D01*
X76493082Y-108163767D01*
X76494852Y-108174320D01*
X76547967Y-108381185D01*
X76551701Y-108391731D01*
X76640510Y-108585705D01*
X76646046Y-108595412D01*
X76767803Y-108770597D01*
X76774976Y-108779176D01*
X76925824Y-108930024D01*
X76934403Y-108937197D01*
X77109588Y-109058954D01*
X77119295Y-109064490D01*
X77313269Y-109153299D01*
X77323815Y-109157033D01*
X77530679Y-109210147D01*
X77541234Y-109211918D01*
X77674930Y-109222793D01*
X77680036Y-109223000D01*
X78467885Y-109223000D01*
X78483124Y-109218525D01*
X78484329Y-109217135D01*
X78486000Y-109209452D01*
X78486000Y-109204884D01*
X78994000Y-109204884D01*
X78998475Y-109220123D01*
X78999865Y-109221328D01*
X79007548Y-109222999D01*
X79799961Y-109222999D01*
X79805071Y-109222791D01*
X79938767Y-109211918D01*
X79949320Y-109210148D01*
X80156185Y-109157033D01*
X80166731Y-109153299D01*
X80360705Y-109064490D01*
X80370412Y-109058954D01*
X80545597Y-108937197D01*
X80554176Y-108930024D01*
X80705024Y-108779176D01*
X80712197Y-108770597D01*
X80833954Y-108595412D01*
X80839490Y-108585705D01*
X80928299Y-108391731D01*
X80932033Y-108381185D01*
X80985147Y-108174321D01*
X80986918Y-108163766D01*
X80997793Y-108030070D01*
X80998000Y-108024964D01*
X80998000Y-107487115D01*
X80993525Y-107471876D01*
X80992135Y-107470671D01*
X80984452Y-107469000D01*
X79012115Y-107469000D01*
X78996876Y-107473475D01*
X78995671Y-107474865D01*
X78994000Y-107482548D01*
X78994000Y-109204884D01*
X78486000Y-109204884D01*
X78486000Y-107487115D01*
X78481525Y-107471876D01*
X78480135Y-107470671D01*
X78472452Y-107469000D01*
X76500116Y-107469000D01*
X76484877Y-107473475D01*
X76483672Y-107474865D01*
X76482001Y-107482548D01*
X76482001Y-108024961D01*
X47752000Y-108024961D01*
X47752000Y-106942885D01*
X76482000Y-106942885D01*
X76486475Y-106958124D01*
X76487865Y-106959329D01*
X76495548Y-106961000D01*
X78467885Y-106961000D01*
X78483124Y-106956525D01*
X78484329Y-106955135D01*
X78486000Y-106947452D01*
X78486000Y-106942885D01*
X78994000Y-106942885D01*
X78998475Y-106958124D01*
X78999865Y-106959329D01*
X79007548Y-106961000D01*
X80979884Y-106961000D01*
X80995123Y-106956525D01*
X80996328Y-106955135D01*
X80997999Y-106947452D01*
X80997999Y-106405039D01*
X80997791Y-106399929D01*
X80986918Y-106266233D01*
X80985148Y-106255680D01*
X80932033Y-106048815D01*
X80928299Y-106038269D01*
X80839490Y-105844295D01*
X80833954Y-105834588D01*
X80712197Y-105659403D01*
X80705024Y-105650824D01*
X80554176Y-105499976D01*
X80545597Y-105492803D01*
X80370412Y-105371046D01*
X80360705Y-105365510D01*
X80166731Y-105276701D01*
X80156185Y-105272967D01*
X79949321Y-105219853D01*
X79938766Y-105218082D01*
X79805070Y-105207207D01*
X79799964Y-105207000D01*
X79012115Y-105207000D01*
X78996876Y-105211475D01*
X78995671Y-105212865D01*
X78994000Y-105220548D01*
X78994000Y-106942885D01*
X78486000Y-106942885D01*
X78486000Y-105225116D01*
X78481525Y-105209877D01*
X78480135Y-105208672D01*
X78472452Y-105207001D01*
X77680039Y-105207001D01*
X77674929Y-105207209D01*
X77541233Y-105218082D01*
X77530680Y-105219852D01*
X77323815Y-105272967D01*
X77313269Y-105276701D01*
X77119295Y-105365510D01*
X77109588Y-105371046D01*
X76934403Y-105492803D01*
X76925824Y-105499976D01*
X76774976Y-105650824D01*
X76767803Y-105659403D01*
X76646046Y-105834588D01*
X76640510Y-105844295D01*
X76551701Y-106038269D01*
X76547967Y-106048815D01*
X76494853Y-106255679D01*
X76493082Y-106266234D01*
X76482207Y-106399930D01*
X76482000Y-106405036D01*
X76482000Y-106942885D01*
X47752000Y-106942885D01*
X47752000Y-99183481D01*
X76339500Y-99183481D01*
X76339501Y-102746518D01*
X76340276Y-102751409D01*
X76340276Y-102751412D01*
X76352512Y-102828670D01*
X76354354Y-102840304D01*
X76411950Y-102953342D01*
X76501658Y-103043050D01*
X76614696Y-103100646D01*
X76624485Y-103102196D01*
X76624487Y-103102197D01*
X76651849Y-103106530D01*
X76708481Y-103115500D01*
X78739589Y-103115500D01*
X80771518Y-103115499D01*
X80776412Y-103114724D01*
X80855506Y-103102198D01*
X80855508Y-103102197D01*
X80865304Y-103100646D01*
X80978342Y-103043050D01*
X81068050Y-102953342D01*
X81125646Y-102840304D01*
X81140500Y-102746519D01*
X81140499Y-99183482D01*
X81125646Y-99089696D01*
X81068050Y-98976658D01*
X80978342Y-98886950D01*
X80865304Y-98829354D01*
X80857024Y-98828043D01*
X88686139Y-98828043D01*
X88688335Y-98842207D01*
X88701522Y-98846000D01*
X89897885Y-98846000D01*
X89913124Y-98841525D01*
X89914329Y-98840135D01*
X89916000Y-98832452D01*
X89916000Y-98827885D01*
X90424000Y-98827885D01*
X90428475Y-98843124D01*
X90429865Y-98844329D01*
X90437548Y-98846000D01*
X91636192Y-98846000D01*
X91649723Y-98842027D01*
X91651248Y-98831420D01*
X91626523Y-98713579D01*
X91623463Y-98703383D01*
X91542737Y-98498971D01*
X91538006Y-98489439D01*
X91423984Y-98301538D01*
X91417720Y-98292948D01*
X91273673Y-98126948D01*
X91266042Y-98119528D01*
X91096089Y-97980174D01*
X91087322Y-97974150D01*
X90896318Y-97865424D01*
X90886654Y-97860959D01*
X90680059Y-97785969D01*
X90669792Y-97783198D01*
X90452345Y-97743877D01*
X90444116Y-97742944D01*
X90439624Y-97742732D01*
X90426876Y-97746475D01*
X90425671Y-97747865D01*
X90424000Y-97755548D01*
X90424000Y-98827885D01*
X89916000Y-98827885D01*
X89916000Y-97764030D01*
X89911690Y-97749352D01*
X89899807Y-97747289D01*
X89795675Y-97756124D01*
X89785203Y-97757914D01*
X89572465Y-97813130D01*
X89562425Y-97816665D01*
X89362030Y-97906937D01*
X89352744Y-97912106D01*
X89170425Y-98034850D01*
X89162130Y-98041519D01*
X89003100Y-98193228D01*
X88996059Y-98201186D01*
X88864859Y-98377525D01*
X88859255Y-98386562D01*
X88759643Y-98582484D01*
X88755643Y-98592335D01*
X88690466Y-98802240D01*
X88688183Y-98812624D01*
X88686139Y-98828043D01*
X80857024Y-98828043D01*
X80855515Y-98827804D01*
X80855513Y-98827803D01*
X80828151Y-98823470D01*
X80771519Y-98814500D01*
X78740411Y-98814500D01*
X76708482Y-98814501D01*
X76703589Y-98815276D01*
X76703588Y-98815276D01*
X76624494Y-98827802D01*
X76624492Y-98827803D01*
X76614696Y-98829354D01*
X76501658Y-98886950D01*
X76411950Y-98976658D01*
X76354354Y-99089696D01*
X76339500Y-99183481D01*
X47752000Y-99183481D01*
X47752000Y-93714753D01*
X72346514Y-93714753D01*
X72347201Y-93721760D01*
X72347201Y-93721763D01*
X72347692Y-93726768D01*
X72364039Y-93893486D01*
X72366262Y-93900168D01*
X72366262Y-93900169D01*
X72392996Y-93980534D01*
X72420726Y-94063896D01*
X72513759Y-94217512D01*
X72518648Y-94222575D01*
X72518649Y-94222576D01*
X72539152Y-94243807D01*
X72638514Y-94346699D01*
X72788789Y-94445036D01*
X72957116Y-94507636D01*
X72964097Y-94508567D01*
X72964099Y-94508568D01*
X73128149Y-94530457D01*
X73128153Y-94530457D01*
X73135130Y-94531388D01*
X73142142Y-94530750D01*
X73142146Y-94530750D01*
X73306960Y-94515751D01*
X73306961Y-94515751D01*
X73313981Y-94515112D01*
X73484782Y-94459615D01*
X73515714Y-94441176D01*
X73632992Y-94371265D01*
X73632994Y-94371264D01*
X73639044Y-94367657D01*
X73769099Y-94243807D01*
X73786570Y-94217512D01*
X73864582Y-94100093D01*
X73868483Y-94094222D01*
X73911669Y-93980534D01*
X73929757Y-93932919D01*
X73929758Y-93932914D01*
X73932257Y-93926336D01*
X73957251Y-93748493D01*
X73957565Y-93726000D01*
X73937546Y-93547528D01*
X73931427Y-93529955D01*
X73892702Y-93418754D01*
X73878485Y-93377927D01*
X73821646Y-93286966D01*
X73802500Y-93220196D01*
X73802500Y-91437576D01*
X73823552Y-91367848D01*
X73868483Y-91300222D01*
X73886663Y-91252364D01*
X73929757Y-91138919D01*
X73929758Y-91138914D01*
X73932257Y-91132336D01*
X73938851Y-91085416D01*
X73956700Y-90958416D01*
X73956700Y-90958411D01*
X73957251Y-90954493D01*
X73957565Y-90932000D01*
X73937546Y-90753528D01*
X73931427Y-90735955D01*
X73889519Y-90615612D01*
X73878485Y-90583927D01*
X73859552Y-90553627D01*
X73787049Y-90437599D01*
X73783316Y-90431625D01*
X73684978Y-90332598D01*
X73661733Y-90309190D01*
X73661729Y-90309187D01*
X73656770Y-90304193D01*
X73648271Y-90298799D01*
X73592309Y-90263285D01*
X73505136Y-90207963D01*
X73475352Y-90197357D01*
X73342586Y-90150081D01*
X73342581Y-90150080D01*
X73335951Y-90147719D01*
X73328965Y-90146886D01*
X73328961Y-90146885D01*
X73201177Y-90131648D01*
X73157624Y-90126455D01*
X73150621Y-90127191D01*
X73150620Y-90127191D01*
X72986025Y-90144490D01*
X72986021Y-90144491D01*
X72979017Y-90145227D01*
X72972346Y-90147498D01*
X72815677Y-90200832D01*
X72815674Y-90200833D01*
X72809007Y-90203103D01*
X72803009Y-90206793D01*
X72803007Y-90206794D01*
X72780260Y-90220788D01*
X72656045Y-90297206D01*
X72651014Y-90302132D01*
X72651011Y-90302135D01*
X72588883Y-90362976D01*
X72527732Y-90422859D01*
X72523913Y-90428784D01*
X72523912Y-90428786D01*
X72515924Y-90441181D01*
X72430446Y-90573817D01*
X72369022Y-90742578D01*
X72346514Y-90920753D01*
X72347201Y-90927760D01*
X72347201Y-90927763D01*
X72348005Y-90935963D01*
X72364039Y-91099486D01*
X72366262Y-91106168D01*
X72366262Y-91106169D01*
X72406286Y-91226486D01*
X72420726Y-91269896D01*
X72424373Y-91275918D01*
X72483276Y-91373179D01*
X72501500Y-91438450D01*
X72501500Y-93220480D01*
X72481411Y-93288735D01*
X72430446Y-93367817D01*
X72428037Y-93374437D01*
X72428035Y-93374440D01*
X72411906Y-93418754D01*
X72369022Y-93536578D01*
X72346514Y-93714753D01*
X47752000Y-93714753D01*
X47752000Y-92698753D01*
X64599514Y-92698753D01*
X64600201Y-92705760D01*
X64600201Y-92705763D01*
X64603275Y-92737112D01*
X64617039Y-92877486D01*
X64619262Y-92884168D01*
X64619262Y-92884169D01*
X64667144Y-93028108D01*
X64673726Y-93047896D01*
X64677373Y-93053918D01*
X64763011Y-93195323D01*
X64766759Y-93201512D01*
X64771648Y-93206575D01*
X64771649Y-93206576D01*
X64820887Y-93257563D01*
X64891514Y-93330699D01*
X65041789Y-93429036D01*
X65210116Y-93491636D01*
X65217097Y-93492567D01*
X65217099Y-93492568D01*
X65381149Y-93514457D01*
X65381153Y-93514457D01*
X65388130Y-93515388D01*
X65395142Y-93514750D01*
X65395146Y-93514750D01*
X65559960Y-93499751D01*
X65559961Y-93499751D01*
X65566981Y-93499112D01*
X65737782Y-93443615D01*
X65779487Y-93418754D01*
X65885992Y-93355265D01*
X65885994Y-93355264D01*
X65892044Y-93351657D01*
X66003778Y-93245254D01*
X66066903Y-93212762D01*
X66090670Y-93210500D01*
X67366819Y-93210500D01*
X67378704Y-93211828D01*
X67378745Y-93211318D01*
X67387691Y-93212038D01*
X67396447Y-93214019D01*
X67449263Y-93210742D01*
X67457067Y-93210500D01*
X67472940Y-93210500D01*
X67483052Y-93209052D01*
X67493106Y-93208022D01*
X67521097Y-93206285D01*
X67539538Y-93205141D01*
X67547982Y-93202093D01*
X67551694Y-93201324D01*
X67566399Y-93197657D01*
X67570027Y-93196596D01*
X67578918Y-93195323D01*
X67621282Y-93176061D01*
X67630637Y-93172254D01*
X67665943Y-93159509D01*
X67665947Y-93159507D01*
X67674387Y-93156460D01*
X67681635Y-93151165D01*
X67684975Y-93149389D01*
X67698089Y-93141726D01*
X67701261Y-93139697D01*
X67709428Y-93135984D01*
X67716223Y-93130129D01*
X67716226Y-93130127D01*
X67744675Y-93105613D01*
X67752596Y-93099324D01*
X67759402Y-93094352D01*
X67763336Y-93091478D01*
X67774079Y-93080735D01*
X67780926Y-93074377D01*
X67811237Y-93048259D01*
X67818037Y-93042400D01*
X67822920Y-93034866D01*
X67828819Y-93028104D01*
X67828824Y-93028108D01*
X67837800Y-93017014D01*
X68066893Y-92787921D01*
X68129205Y-92753895D01*
X68168103Y-92752310D01*
X68168103Y-92752309D01*
X68168114Y-92752309D01*
X68172658Y-92752124D01*
X68173608Y-92752251D01*
X68175150Y-92752457D01*
X68175153Y-92752457D01*
X68182130Y-92753388D01*
X68189142Y-92752750D01*
X68189145Y-92752750D01*
X68353960Y-92737751D01*
X68353961Y-92737751D01*
X68360981Y-92737112D01*
X68531782Y-92681615D01*
X68647869Y-92612414D01*
X68679992Y-92593265D01*
X68679994Y-92593264D01*
X68686044Y-92589657D01*
X68816099Y-92465807D01*
X68833570Y-92439512D01*
X68911582Y-92322093D01*
X68915483Y-92316222D01*
X68957117Y-92206621D01*
X68976757Y-92154919D01*
X68976758Y-92154914D01*
X68979257Y-92148336D01*
X68983874Y-92115486D01*
X69003700Y-91974416D01*
X69003700Y-91974411D01*
X69004251Y-91970493D01*
X69004565Y-91948000D01*
X68984546Y-91769528D01*
X68978427Y-91751955D01*
X68927803Y-91606584D01*
X68925485Y-91599927D01*
X68917961Y-91587885D01*
X68834049Y-91453599D01*
X68830316Y-91447625D01*
X68751094Y-91367848D01*
X68708733Y-91325190D01*
X68708729Y-91325187D01*
X68703770Y-91320193D01*
X68692761Y-91313206D01*
X68607875Y-91259336D01*
X68552136Y-91223963D01*
X68502569Y-91206313D01*
X68389586Y-91166081D01*
X68389581Y-91166080D01*
X68382951Y-91163719D01*
X68375965Y-91162886D01*
X68375961Y-91162885D01*
X68248177Y-91147648D01*
X68204624Y-91142455D01*
X68197621Y-91143191D01*
X68197620Y-91143191D01*
X68033025Y-91160490D01*
X68033021Y-91160491D01*
X68026017Y-91161227D01*
X68019346Y-91163498D01*
X67862677Y-91216832D01*
X67862674Y-91216833D01*
X67856007Y-91219103D01*
X67850009Y-91222793D01*
X67850007Y-91222794D01*
X67833143Y-91233169D01*
X67703045Y-91313206D01*
X67698014Y-91318132D01*
X67698011Y-91318135D01*
X67647367Y-91367730D01*
X67574732Y-91438859D01*
X67570913Y-91444784D01*
X67570912Y-91444786D01*
X67527408Y-91512291D01*
X67477446Y-91589817D01*
X67475037Y-91596437D01*
X67475035Y-91596440D01*
X67473766Y-91599927D01*
X67416022Y-91758578D01*
X67393514Y-91936753D01*
X67394201Y-91943760D01*
X67394201Y-91943763D01*
X67397428Y-91976672D01*
X67384168Y-92046419D01*
X67361124Y-92078062D01*
X67266591Y-92172595D01*
X67204279Y-92206621D01*
X67177496Y-92209500D01*
X66088641Y-92209500D01*
X66020520Y-92189498D01*
X65999235Y-92172284D01*
X65914733Y-92087190D01*
X65914729Y-92087187D01*
X65909770Y-92082193D01*
X65898761Y-92075206D01*
X65836896Y-92035946D01*
X65758136Y-91985963D01*
X65714691Y-91970493D01*
X65595586Y-91928081D01*
X65595581Y-91928080D01*
X65588951Y-91925719D01*
X65581965Y-91924886D01*
X65581961Y-91924885D01*
X65454177Y-91909648D01*
X65410624Y-91904455D01*
X65403621Y-91905191D01*
X65403620Y-91905191D01*
X65239025Y-91922490D01*
X65239021Y-91922491D01*
X65232017Y-91923227D01*
X65225346Y-91925498D01*
X65068677Y-91978832D01*
X65068674Y-91978833D01*
X65062007Y-91981103D01*
X65056009Y-91984793D01*
X65056007Y-91984794D01*
X64985526Y-92028154D01*
X64909045Y-92075206D01*
X64904014Y-92080132D01*
X64904011Y-92080135D01*
X64896807Y-92087190D01*
X64780732Y-92200859D01*
X64776913Y-92206784D01*
X64776912Y-92206786D01*
X64706385Y-92316222D01*
X64683446Y-92351817D01*
X64622022Y-92520578D01*
X64599514Y-92698753D01*
X47752000Y-92698753D01*
X47752000Y-89662000D01*
X47498000Y-89408000D01*
X45010190Y-89408000D01*
X44942069Y-89387998D01*
X44921095Y-89371095D01*
X44740905Y-89190905D01*
X44706879Y-89128593D01*
X44704000Y-89101810D01*
X44704000Y-87621500D01*
X44724002Y-87553379D01*
X44777658Y-87506886D01*
X44830000Y-87495500D01*
X52275955Y-87495500D01*
X52344076Y-87515502D01*
X52366592Y-87533973D01*
X52445514Y-87615699D01*
X52595789Y-87714036D01*
X52764116Y-87776636D01*
X52771097Y-87777567D01*
X52771099Y-87777568D01*
X52935149Y-87799457D01*
X52935153Y-87799457D01*
X52942130Y-87800388D01*
X52949142Y-87799750D01*
X52949146Y-87799750D01*
X53113960Y-87784751D01*
X53113961Y-87784751D01*
X53120981Y-87784112D01*
X53291782Y-87728615D01*
X53387188Y-87671742D01*
X53439992Y-87640265D01*
X53439994Y-87640264D01*
X53446044Y-87636657D01*
X53576099Y-87512807D01*
X53614820Y-87454528D01*
X53671582Y-87369093D01*
X53675483Y-87363222D01*
X53721925Y-87240964D01*
X53736757Y-87201919D01*
X53736758Y-87201914D01*
X53739257Y-87195336D01*
X53745664Y-87149751D01*
X53763700Y-87021416D01*
X53763700Y-87021411D01*
X53764251Y-87017493D01*
X53764565Y-86995000D01*
X53744546Y-86816528D01*
X53685485Y-86646927D01*
X53674466Y-86629292D01*
X53594049Y-86500599D01*
X53590316Y-86494625D01*
X53570122Y-86474289D01*
X53536353Y-86440284D01*
X53502546Y-86377853D01*
X53507858Y-86307056D01*
X53550603Y-86250369D01*
X53617209Y-86225790D01*
X53625759Y-86225500D01*
X56509496Y-86225500D01*
X56577617Y-86245502D01*
X56598591Y-86262405D01*
X60302466Y-89966280D01*
X60309932Y-89975624D01*
X60310322Y-89975292D01*
X60316140Y-89982128D01*
X60320930Y-89989720D01*
X60327658Y-89995662D01*
X60327659Y-89995663D01*
X60360600Y-90024755D01*
X60366288Y-90030102D01*
X60377507Y-90041321D01*
X60381095Y-90044010D01*
X60381096Y-90044011D01*
X60385684Y-90047450D01*
X60393523Y-90053832D01*
X60428388Y-90084623D01*
X60436506Y-90088434D01*
X60439659Y-90090506D01*
X60452680Y-90098329D01*
X60455989Y-90100141D01*
X60463176Y-90105527D01*
X60471581Y-90108678D01*
X60471583Y-90108679D01*
X60506737Y-90121857D01*
X60516057Y-90125784D01*
X60558163Y-90145553D01*
X60567035Y-90146934D01*
X60570658Y-90148042D01*
X60585317Y-90151888D01*
X60589014Y-90152701D01*
X60597420Y-90155852D01*
X60643843Y-90159302D01*
X60653856Y-90160452D01*
X60667009Y-90162500D01*
X60682204Y-90162500D01*
X60691542Y-90162846D01*
X60740392Y-90166476D01*
X60749168Y-90164603D01*
X60758125Y-90163992D01*
X60758125Y-90163998D01*
X60772318Y-90162500D01*
X65864955Y-90162500D01*
X65933076Y-90182502D01*
X65955592Y-90200973D01*
X66034514Y-90282699D01*
X66184789Y-90381036D01*
X66353116Y-90443636D01*
X66360097Y-90444567D01*
X66360099Y-90444568D01*
X66524149Y-90466457D01*
X66524153Y-90466457D01*
X66531130Y-90467388D01*
X66538142Y-90466750D01*
X66538146Y-90466750D01*
X66702960Y-90451751D01*
X66702961Y-90451751D01*
X66709981Y-90451112D01*
X66880782Y-90395615D01*
X66976188Y-90338742D01*
X67028992Y-90307265D01*
X67028994Y-90307264D01*
X67035044Y-90303657D01*
X67165099Y-90179807D01*
X67171242Y-90170562D01*
X67232285Y-90078684D01*
X67264483Y-90030222D01*
X67288772Y-89966280D01*
X67325757Y-89868919D01*
X67325758Y-89868914D01*
X67328257Y-89862336D01*
X67334912Y-89814983D01*
X67352700Y-89688416D01*
X67352700Y-89688411D01*
X67353251Y-89684493D01*
X67353565Y-89662000D01*
X67333546Y-89483528D01*
X67311373Y-89419854D01*
X67290580Y-89360146D01*
X67274485Y-89313927D01*
X67201082Y-89196457D01*
X67183049Y-89167599D01*
X67179316Y-89161625D01*
X67092970Y-89074674D01*
X67057733Y-89039190D01*
X67057729Y-89039187D01*
X67052770Y-89034193D01*
X67041761Y-89027206D01*
X66994860Y-88997442D01*
X66901136Y-88937963D01*
X66828128Y-88911966D01*
X66738586Y-88880081D01*
X66738581Y-88880080D01*
X66731951Y-88877719D01*
X66724965Y-88876886D01*
X66724961Y-88876885D01*
X66597177Y-88861648D01*
X66553624Y-88856455D01*
X66546621Y-88857191D01*
X66546620Y-88857191D01*
X66382025Y-88874490D01*
X66382021Y-88874491D01*
X66375017Y-88875227D01*
X66368346Y-88877498D01*
X66211677Y-88930832D01*
X66211674Y-88930833D01*
X66205007Y-88933103D01*
X66199009Y-88936793D01*
X66199007Y-88936794D01*
X66184513Y-88945711D01*
X66052045Y-89027206D01*
X65951644Y-89125526D01*
X65888981Y-89158894D01*
X65863489Y-89161500D01*
X60965504Y-89161500D01*
X60897383Y-89141498D01*
X60876409Y-89124595D01*
X60132567Y-88380753D01*
X77426514Y-88380753D01*
X77427201Y-88387760D01*
X77427201Y-88387763D01*
X77428005Y-88395963D01*
X77444039Y-88559486D01*
X77500726Y-88729896D01*
X77504373Y-88735918D01*
X77589746Y-88876885D01*
X77593759Y-88883512D01*
X77598648Y-88888575D01*
X77598649Y-88888576D01*
X77641649Y-88933103D01*
X77718514Y-89012699D01*
X77868789Y-89111036D01*
X78037116Y-89173636D01*
X78044097Y-89174567D01*
X78044099Y-89174568D01*
X78208149Y-89196457D01*
X78208153Y-89196457D01*
X78215130Y-89197388D01*
X78222142Y-89196750D01*
X78222145Y-89196750D01*
X78256982Y-89193579D01*
X78261249Y-89193191D01*
X78330902Y-89206937D01*
X78361763Y-89229577D01*
X80059559Y-90927373D01*
X80093585Y-90989685D01*
X80095471Y-91032257D01*
X80093514Y-91047753D01*
X80094201Y-91054760D01*
X80094201Y-91054763D01*
X80095005Y-91062963D01*
X80111039Y-91226486D01*
X80113262Y-91233168D01*
X80113262Y-91233169D01*
X80159837Y-91373179D01*
X80167726Y-91396896D01*
X80171373Y-91402918D01*
X80237612Y-91512291D01*
X80260759Y-91550512D01*
X80265648Y-91555575D01*
X80265649Y-91555576D01*
X80300745Y-91591919D01*
X80385514Y-91679699D01*
X80535789Y-91778036D01*
X80704116Y-91840636D01*
X80711097Y-91841567D01*
X80711099Y-91841568D01*
X80875149Y-91863457D01*
X80875153Y-91863457D01*
X80882130Y-91864388D01*
X80889142Y-91863750D01*
X80889146Y-91863750D01*
X81053960Y-91848751D01*
X81053961Y-91848751D01*
X81060981Y-91848112D01*
X81231782Y-91792615D01*
X81270511Y-91769528D01*
X81379992Y-91704265D01*
X81379994Y-91704264D01*
X81386044Y-91700657D01*
X81516099Y-91576807D01*
X81533570Y-91550512D01*
X81592109Y-91462402D01*
X81615483Y-91427222D01*
X81638082Y-91367730D01*
X81676757Y-91265919D01*
X81676758Y-91265914D01*
X81679257Y-91259336D01*
X81684859Y-91219476D01*
X81703700Y-91085416D01*
X81703700Y-91085411D01*
X81704251Y-91081493D01*
X81704403Y-91070576D01*
X81704510Y-91062963D01*
X81704510Y-91062958D01*
X81704565Y-91059000D01*
X81684546Y-90880528D01*
X81625485Y-90710927D01*
X81565926Y-90615612D01*
X81534049Y-90564599D01*
X81530316Y-90558625D01*
X81443344Y-90471044D01*
X81408733Y-90436190D01*
X81408729Y-90436187D01*
X81403770Y-90431193D01*
X81396576Y-90426627D01*
X81318653Y-90377176D01*
X81252136Y-90334963D01*
X81179757Y-90309190D01*
X81089586Y-90277081D01*
X81089581Y-90277080D01*
X81082951Y-90274719D01*
X81075965Y-90273886D01*
X81075961Y-90273885D01*
X80948177Y-90258648D01*
X80904624Y-90253455D01*
X80897621Y-90254191D01*
X80897620Y-90254191D01*
X80877802Y-90256274D01*
X80870868Y-90257003D01*
X80801030Y-90244231D01*
X80768602Y-90220788D01*
X79072438Y-88524624D01*
X79038412Y-88462312D01*
X79036925Y-88422403D01*
X79036396Y-88422362D01*
X79036699Y-88418418D01*
X79037251Y-88414493D01*
X79037565Y-88392000D01*
X79017546Y-88213528D01*
X79011427Y-88195955D01*
X78960803Y-88050584D01*
X78958485Y-88043927D01*
X78863316Y-87891625D01*
X78799771Y-87827635D01*
X78741733Y-87769190D01*
X78741729Y-87769187D01*
X78736770Y-87764193D01*
X78725761Y-87757206D01*
X78651653Y-87710176D01*
X78585136Y-87667963D01*
X78555352Y-87657357D01*
X78422586Y-87610081D01*
X78422581Y-87610080D01*
X78415951Y-87607719D01*
X78408965Y-87606886D01*
X78408961Y-87606885D01*
X78281177Y-87591648D01*
X78237624Y-87586455D01*
X78230621Y-87587191D01*
X78230620Y-87587191D01*
X78066025Y-87604490D01*
X78066021Y-87604491D01*
X78059017Y-87605227D01*
X78052346Y-87607498D01*
X77895677Y-87660832D01*
X77895674Y-87660833D01*
X77889007Y-87663103D01*
X77883009Y-87666793D01*
X77883007Y-87666794D01*
X77812526Y-87710155D01*
X77736045Y-87757206D01*
X77731014Y-87762132D01*
X77731011Y-87762135D01*
X77692600Y-87799750D01*
X77607732Y-87882859D01*
X77603913Y-87888784D01*
X77603912Y-87888786D01*
X77547445Y-87976406D01*
X77510446Y-88033817D01*
X77449022Y-88202578D01*
X77426514Y-88380753D01*
X60132567Y-88380753D01*
X58326909Y-86575095D01*
X58292883Y-86512783D01*
X58297948Y-86441968D01*
X58340495Y-86385132D01*
X58407015Y-86360321D01*
X58416004Y-86360000D01*
X61214000Y-86360000D01*
X61225247Y-86348753D01*
X73616514Y-86348753D01*
X73617201Y-86355760D01*
X73617201Y-86355763D01*
X73619367Y-86377853D01*
X73634039Y-86527486D01*
X73636262Y-86534168D01*
X73636262Y-86534169D01*
X73675986Y-86653584D01*
X73690726Y-86697896D01*
X73694373Y-86703918D01*
X73766811Y-86823527D01*
X73783759Y-86851512D01*
X73908514Y-86980699D01*
X74058789Y-87079036D01*
X74227116Y-87141636D01*
X74234097Y-87142567D01*
X74234099Y-87142568D01*
X74398149Y-87164457D01*
X74398153Y-87164457D01*
X74405130Y-87165388D01*
X74412142Y-87164750D01*
X74412146Y-87164750D01*
X74576960Y-87149751D01*
X74576961Y-87149751D01*
X74583981Y-87149112D01*
X74754782Y-87093615D01*
X74805093Y-87063624D01*
X74902992Y-87005265D01*
X74902994Y-87005264D01*
X74909044Y-87001657D01*
X75039099Y-86877807D01*
X75047881Y-86864590D01*
X75102152Y-86782905D01*
X75138483Y-86728222D01*
X75153168Y-86689564D01*
X75199757Y-86566919D01*
X75199758Y-86566914D01*
X75202257Y-86560336D01*
X75205935Y-86534169D01*
X75206307Y-86531519D01*
X75235595Y-86466845D01*
X75241986Y-86459960D01*
X76297067Y-85404879D01*
X76359328Y-85371353D01*
X76361981Y-85371112D01*
X76532782Y-85315615D01*
X76569532Y-85293708D01*
X76680992Y-85227265D01*
X76680994Y-85227264D01*
X76687044Y-85223657D01*
X76817099Y-85099807D01*
X76823464Y-85090228D01*
X76883474Y-84999905D01*
X76916483Y-84950222D01*
X76958599Y-84839352D01*
X76977757Y-84788919D01*
X76977758Y-84788914D01*
X76980257Y-84782336D01*
X76981554Y-84773108D01*
X77004700Y-84608416D01*
X77004700Y-84608411D01*
X77005251Y-84604493D01*
X77005565Y-84582000D01*
X76985546Y-84403528D01*
X76979427Y-84385955D01*
X76937507Y-84265578D01*
X76926485Y-84233927D01*
X76831316Y-84081625D01*
X76756713Y-84006500D01*
X76709733Y-83959190D01*
X76709729Y-83959187D01*
X76704770Y-83954193D01*
X76693761Y-83947206D01*
X76646612Y-83917285D01*
X76553136Y-83857963D01*
X76523352Y-83847357D01*
X76390586Y-83800081D01*
X76390581Y-83800080D01*
X76383951Y-83797719D01*
X76376965Y-83796886D01*
X76376961Y-83796885D01*
X76249177Y-83781648D01*
X76205624Y-83776455D01*
X76198621Y-83777191D01*
X76198620Y-83777191D01*
X76034025Y-83794490D01*
X76034021Y-83794491D01*
X76027017Y-83795227D01*
X76020346Y-83797498D01*
X75863677Y-83850832D01*
X75863674Y-83850833D01*
X75857007Y-83853103D01*
X75851009Y-83856793D01*
X75851007Y-83856794D01*
X75811918Y-83880842D01*
X75704045Y-83947206D01*
X75699014Y-83952132D01*
X75699011Y-83952135D01*
X75643496Y-84006500D01*
X75575732Y-84072859D01*
X75571913Y-84078784D01*
X75571912Y-84078786D01*
X75537253Y-84132567D01*
X75478446Y-84223817D01*
X75476037Y-84230437D01*
X75476035Y-84230440D01*
X75463972Y-84263584D01*
X75417022Y-84392578D01*
X75416139Y-84399567D01*
X75416137Y-84399576D01*
X75414843Y-84409820D01*
X75386461Y-84474896D01*
X75378932Y-84483122D01*
X74325054Y-85537000D01*
X74262896Y-85570942D01*
X74262904Y-85570977D01*
X74262783Y-85571004D01*
X74262742Y-85571026D01*
X74262515Y-85571062D01*
X74256015Y-85572491D01*
X74249017Y-85573227D01*
X74242352Y-85575496D01*
X74085677Y-85628832D01*
X74085674Y-85628833D01*
X74079007Y-85631103D01*
X73926045Y-85725206D01*
X73921014Y-85730132D01*
X73921011Y-85730135D01*
X73858883Y-85790976D01*
X73797732Y-85850859D01*
X73793913Y-85856784D01*
X73793912Y-85856786D01*
X73770905Y-85892486D01*
X73700446Y-86001817D01*
X73639022Y-86170578D01*
X73616514Y-86348753D01*
X61225247Y-86348753D01*
X62574095Y-84999905D01*
X62636407Y-84965879D01*
X62663190Y-84963000D01*
X65532000Y-84963000D01*
X65532000Y-84959173D01*
X65557543Y-84955500D01*
X71303819Y-84955500D01*
X71315704Y-84956828D01*
X71315745Y-84956318D01*
X71324691Y-84957038D01*
X71333447Y-84959019D01*
X71376980Y-84956318D01*
X71386264Y-84955742D01*
X71394067Y-84955500D01*
X71409940Y-84955500D01*
X71420052Y-84954052D01*
X71430106Y-84953022D01*
X71458097Y-84951285D01*
X71476538Y-84950141D01*
X71484982Y-84947093D01*
X71488694Y-84946324D01*
X71503399Y-84942657D01*
X71507027Y-84941596D01*
X71515918Y-84940323D01*
X71558282Y-84921061D01*
X71567637Y-84917254D01*
X71602943Y-84904509D01*
X71602947Y-84904507D01*
X71611387Y-84901460D01*
X71618635Y-84896165D01*
X71621975Y-84894389D01*
X71635089Y-84886726D01*
X71638261Y-84884697D01*
X71646428Y-84880984D01*
X71653223Y-84875129D01*
X71653226Y-84875127D01*
X71681675Y-84850613D01*
X71689596Y-84844324D01*
X71696402Y-84839352D01*
X71700336Y-84836478D01*
X71711079Y-84825735D01*
X71717926Y-84819377D01*
X71755037Y-84787400D01*
X71759920Y-84779866D01*
X71765819Y-84773104D01*
X71765824Y-84773108D01*
X71774800Y-84762014D01*
X73558234Y-82978580D01*
X88713752Y-82978580D01*
X88738477Y-83096421D01*
X88741537Y-83106617D01*
X88822263Y-83311029D01*
X88826994Y-83320561D01*
X88941016Y-83508462D01*
X88947280Y-83517052D01*
X89091327Y-83683052D01*
X89098958Y-83690472D01*
X89268911Y-83829826D01*
X89277678Y-83835850D01*
X89407616Y-83909815D01*
X89456922Y-83960897D01*
X89470784Y-84030527D01*
X89444801Y-84096598D01*
X89409852Y-84127393D01*
X89405871Y-84129292D01*
X89224595Y-84259552D01*
X89211981Y-84272569D01*
X89078290Y-84410527D01*
X89069251Y-84419854D01*
X88944750Y-84605132D01*
X88855026Y-84809529D01*
X88853718Y-84814977D01*
X88853716Y-84814983D01*
X88817489Y-84965879D01*
X88802915Y-85026585D01*
X88802592Y-85032190D01*
X88790527Y-85241447D01*
X88790066Y-85249438D01*
X88816883Y-85471044D01*
X88882519Y-85684400D01*
X88984901Y-85882759D01*
X88988310Y-85887201D01*
X88988312Y-85887205D01*
X89071710Y-85995891D01*
X89120790Y-86059854D01*
X89285893Y-86210086D01*
X89474990Y-86328707D01*
X89480200Y-86330801D01*
X89480207Y-86330805D01*
X89513132Y-86344041D01*
X89568877Y-86388008D01*
X89592002Y-86455132D01*
X89575165Y-86524104D01*
X89520380Y-86574674D01*
X89405871Y-86629292D01*
X89224595Y-86759552D01*
X89220688Y-86763584D01*
X89109998Y-86877807D01*
X89069251Y-86919854D01*
X88944750Y-87105132D01*
X88942491Y-87110278D01*
X88942490Y-87110280D01*
X88918299Y-87165388D01*
X88855026Y-87309529D01*
X88853718Y-87314977D01*
X88853716Y-87314983D01*
X88810378Y-87495500D01*
X88802915Y-87526585D01*
X88802592Y-87532190D01*
X88791267Y-87728615D01*
X88790066Y-87749438D01*
X88816883Y-87971044D01*
X88882519Y-88184400D01*
X88984901Y-88382759D01*
X88988310Y-88387201D01*
X88988312Y-88387205D01*
X89074975Y-88500146D01*
X89120790Y-88559854D01*
X89285893Y-88710086D01*
X89474990Y-88828707D01*
X89480200Y-88830801D01*
X89480207Y-88830805D01*
X89513132Y-88844041D01*
X89568877Y-88888008D01*
X89592002Y-88955132D01*
X89575165Y-89024104D01*
X89520380Y-89074674D01*
X89405871Y-89129292D01*
X89224595Y-89259552D01*
X89220688Y-89263584D01*
X89100122Y-89387998D01*
X89069251Y-89419854D01*
X88944750Y-89605132D01*
X88855026Y-89809529D01*
X88853718Y-89814977D01*
X88853716Y-89814983D01*
X88810339Y-89995663D01*
X88802915Y-90026585D01*
X88801910Y-90044011D01*
X88792594Y-90205598D01*
X88790066Y-90249438D01*
X88816883Y-90471044D01*
X88882519Y-90684400D01*
X88984901Y-90882759D01*
X88988310Y-90887201D01*
X88988312Y-90887205D01*
X89074975Y-91000146D01*
X89120790Y-91059854D01*
X89285893Y-91210086D01*
X89322691Y-91233169D01*
X89340639Y-91244428D01*
X89387717Y-91297571D01*
X89398589Y-91367730D01*
X89369805Y-91432630D01*
X89308836Y-91472162D01*
X89192215Y-91506044D01*
X89192214Y-91506045D01*
X89184602Y-91508256D01*
X89043135Y-91591919D01*
X88926919Y-91708135D01*
X88922885Y-91714956D01*
X88894547Y-91762874D01*
X88843256Y-91849602D01*
X88841045Y-91857214D01*
X88841044Y-91857215D01*
X88819966Y-91929766D01*
X88797402Y-92007431D01*
X88796897Y-92013850D01*
X88794693Y-92041847D01*
X88794692Y-92041860D01*
X88794500Y-92044306D01*
X88794500Y-93375694D01*
X88794692Y-93378140D01*
X88794693Y-93378153D01*
X88796367Y-93399416D01*
X88797402Y-93412569D01*
X88799199Y-93418754D01*
X88836612Y-93547528D01*
X88843256Y-93570398D01*
X88926919Y-93711865D01*
X89043135Y-93828081D01*
X89184602Y-93911744D01*
X89192214Y-93913955D01*
X89192215Y-93913956D01*
X89257486Y-93932919D01*
X89342431Y-93957598D01*
X89355584Y-93958633D01*
X89376847Y-93960307D01*
X89376860Y-93960308D01*
X89379306Y-93960500D01*
X90960694Y-93960500D01*
X90963140Y-93960308D01*
X90963153Y-93960307D01*
X90984416Y-93958633D01*
X90997569Y-93957598D01*
X91082514Y-93932919D01*
X91147785Y-93913956D01*
X91147786Y-93913955D01*
X91155398Y-93911744D01*
X91296865Y-93828081D01*
X91413081Y-93711865D01*
X91496744Y-93570398D01*
X91503389Y-93547528D01*
X91540801Y-93418754D01*
X91542598Y-93412569D01*
X91543633Y-93399416D01*
X91545307Y-93378153D01*
X91545308Y-93378140D01*
X91545500Y-93375694D01*
X91545500Y-92044306D01*
X91545308Y-92041860D01*
X91545307Y-92041847D01*
X91543103Y-92013850D01*
X91542598Y-92007431D01*
X91520034Y-91929766D01*
X91498956Y-91857215D01*
X91498955Y-91857214D01*
X91496744Y-91849602D01*
X91445454Y-91762874D01*
X91417115Y-91714956D01*
X91413081Y-91708135D01*
X91296865Y-91591919D01*
X91155398Y-91508256D01*
X91147786Y-91506045D01*
X91147785Y-91506044D01*
X91112515Y-91495797D01*
X91030878Y-91472079D01*
X90971044Y-91433867D01*
X90941366Y-91369371D01*
X90951269Y-91299068D01*
X90992506Y-91248761D01*
X91110839Y-91163730D01*
X91110846Y-91163724D01*
X91115405Y-91160448D01*
X91191918Y-91081493D01*
X91266846Y-91004174D01*
X91266848Y-91004171D01*
X91270749Y-91000146D01*
X91395250Y-90814868D01*
X91484974Y-90610471D01*
X91486282Y-90605023D01*
X91486284Y-90605017D01*
X91535775Y-90398872D01*
X91535775Y-90398871D01*
X91537085Y-90393415D01*
X91543761Y-90277631D01*
X91549611Y-90176169D01*
X91549611Y-90176166D01*
X91549934Y-90170562D01*
X91523117Y-89948956D01*
X91457481Y-89735600D01*
X91355099Y-89537241D01*
X91351690Y-89532799D01*
X91351688Y-89532795D01*
X91222620Y-89364590D01*
X91219210Y-89360146D01*
X91054107Y-89209914D01*
X90865010Y-89091293D01*
X90859800Y-89089199D01*
X90859793Y-89089195D01*
X90826868Y-89075959D01*
X90771123Y-89031992D01*
X90747998Y-88964868D01*
X90764835Y-88895896D01*
X90819620Y-88845326D01*
X90854462Y-88828707D01*
X90934129Y-88790708D01*
X91115405Y-88660448D01*
X91270749Y-88500146D01*
X91395250Y-88314868D01*
X91484974Y-88110471D01*
X91486282Y-88105023D01*
X91486284Y-88105017D01*
X91535775Y-87898872D01*
X91535775Y-87898871D01*
X91537085Y-87893415D01*
X91543960Y-87774181D01*
X91549611Y-87676169D01*
X91549611Y-87676166D01*
X91549934Y-87670562D01*
X91523117Y-87448956D01*
X91457481Y-87235600D01*
X91439866Y-87201471D01*
X91357672Y-87042226D01*
X91355099Y-87037241D01*
X91351690Y-87032799D01*
X91351688Y-87032795D01*
X91222620Y-86864590D01*
X91219210Y-86860146D01*
X91054107Y-86709914D01*
X90865010Y-86591293D01*
X90859800Y-86589199D01*
X90859793Y-86589195D01*
X90826868Y-86575959D01*
X90771123Y-86531992D01*
X90747998Y-86464868D01*
X90764835Y-86395896D01*
X90819620Y-86345326D01*
X90854462Y-86328707D01*
X90934129Y-86290708D01*
X91101308Y-86170578D01*
X91110846Y-86163724D01*
X91115405Y-86160448D01*
X91270749Y-86000146D01*
X91395250Y-85814868D01*
X91484974Y-85610471D01*
X91486282Y-85605023D01*
X91486284Y-85605017D01*
X91535775Y-85398872D01*
X91535775Y-85398871D01*
X91537085Y-85393415D01*
X91546981Y-85221786D01*
X91549611Y-85176169D01*
X91549611Y-85176166D01*
X91549934Y-85170562D01*
X91523117Y-84948956D01*
X91457481Y-84735600D01*
X91355099Y-84537241D01*
X91351690Y-84532799D01*
X91351688Y-84532795D01*
X91222620Y-84364590D01*
X91219210Y-84360146D01*
X91054107Y-84209914D01*
X90926398Y-84129802D01*
X90879320Y-84076659D01*
X90868448Y-84006500D01*
X90897232Y-83941600D01*
X90941604Y-83908183D01*
X90952966Y-83903065D01*
X90962256Y-83897894D01*
X91144575Y-83775150D01*
X91152870Y-83768481D01*
X91311900Y-83616772D01*
X91318941Y-83608814D01*
X91450141Y-83432475D01*
X91455745Y-83423438D01*
X91555357Y-83227516D01*
X91559357Y-83217665D01*
X91624534Y-83007760D01*
X91626817Y-82997376D01*
X91628861Y-82981957D01*
X91626665Y-82967793D01*
X91613478Y-82964000D01*
X88728808Y-82964000D01*
X88715277Y-82967973D01*
X88713752Y-82978580D01*
X73558234Y-82978580D01*
X74091280Y-82445534D01*
X74100624Y-82438068D01*
X74100603Y-82438043D01*
X88711139Y-82438043D01*
X88713335Y-82452207D01*
X88726522Y-82456000D01*
X89897885Y-82456000D01*
X89913124Y-82451525D01*
X89914329Y-82450135D01*
X89916000Y-82442452D01*
X89916000Y-82437885D01*
X90424000Y-82437885D01*
X90428475Y-82453124D01*
X90429865Y-82454329D01*
X90437548Y-82456000D01*
X91611192Y-82456000D01*
X91624723Y-82452027D01*
X91626248Y-82441420D01*
X91601523Y-82323579D01*
X91598463Y-82313383D01*
X91517737Y-82108971D01*
X91513006Y-82099439D01*
X91398984Y-81911538D01*
X91392720Y-81902948D01*
X91248673Y-81736948D01*
X91241042Y-81729528D01*
X91071089Y-81590174D01*
X91062322Y-81584150D01*
X90871318Y-81475424D01*
X90861654Y-81470959D01*
X90655059Y-81395969D01*
X90644792Y-81393198D01*
X90441826Y-81356496D01*
X90428586Y-81357915D01*
X90424000Y-81372550D01*
X90424000Y-82437885D01*
X89916000Y-82437885D01*
X89916000Y-81376151D01*
X89911690Y-81361473D01*
X89899807Y-81359410D01*
X89820675Y-81366124D01*
X89810203Y-81367914D01*
X89597465Y-81423130D01*
X89587425Y-81426665D01*
X89387030Y-81516937D01*
X89377744Y-81522106D01*
X89195425Y-81644850D01*
X89187130Y-81651519D01*
X89028100Y-81803228D01*
X89021059Y-81811186D01*
X88889859Y-81987525D01*
X88884255Y-81996562D01*
X88784643Y-82192484D01*
X88780643Y-82202335D01*
X88715466Y-82412240D01*
X88713183Y-82422624D01*
X88711139Y-82438043D01*
X74100603Y-82438043D01*
X74100292Y-82437678D01*
X74107128Y-82431860D01*
X74114720Y-82427070D01*
X74149756Y-82387399D01*
X74155102Y-82381712D01*
X74166320Y-82370494D01*
X74169010Y-82366905D01*
X74172450Y-82362316D01*
X74178832Y-82354477D01*
X74203682Y-82326339D01*
X74209623Y-82319612D01*
X74213437Y-82311489D01*
X74215508Y-82308336D01*
X74223327Y-82295324D01*
X74225143Y-82292006D01*
X74230526Y-82284824D01*
X74246858Y-82241259D01*
X74250783Y-82231944D01*
X74270553Y-82189837D01*
X74271935Y-82180964D01*
X74273042Y-82177342D01*
X74276891Y-82162672D01*
X74277702Y-82158983D01*
X74280852Y-82150581D01*
X74281517Y-82141636D01*
X74281519Y-82141626D01*
X74284302Y-82104172D01*
X74285452Y-82094145D01*
X74287500Y-82080991D01*
X74287500Y-82065797D01*
X74287846Y-82056460D01*
X74290811Y-82016557D01*
X74291476Y-82007609D01*
X74289603Y-81998833D01*
X74288992Y-81989876D01*
X74288998Y-81989876D01*
X74287500Y-81975683D01*
X74287500Y-79422847D01*
X74307502Y-79354726D01*
X74326608Y-79331602D01*
X74398992Y-79262671D01*
X74398995Y-79262668D01*
X74404099Y-79257807D01*
X74421570Y-79231512D01*
X74499582Y-79114093D01*
X74503483Y-79108222D01*
X74518168Y-79069564D01*
X74564757Y-78946919D01*
X74564758Y-78946914D01*
X74567257Y-78940336D01*
X74572859Y-78900476D01*
X74591700Y-78766416D01*
X74591700Y-78766411D01*
X74592251Y-78762493D01*
X74592465Y-78747193D01*
X74592510Y-78743963D01*
X74592510Y-78743958D01*
X74592565Y-78740000D01*
X74572546Y-78561528D01*
X74566427Y-78543955D01*
X74515803Y-78398584D01*
X74513485Y-78391927D01*
X74440082Y-78274457D01*
X74422049Y-78245599D01*
X74418316Y-78239625D01*
X74354771Y-78175635D01*
X74296733Y-78117190D01*
X74296729Y-78117187D01*
X74291770Y-78112193D01*
X74283271Y-78106799D01*
X74182074Y-78042578D01*
X74140136Y-78015963D01*
X74061065Y-77987807D01*
X73977586Y-77958081D01*
X73977581Y-77958080D01*
X73970951Y-77955719D01*
X73963965Y-77954886D01*
X73963961Y-77954885D01*
X73836177Y-77939648D01*
X73792624Y-77934455D01*
X73785621Y-77935191D01*
X73785620Y-77935191D01*
X73621025Y-77952490D01*
X73621021Y-77952491D01*
X73614017Y-77953227D01*
X73607346Y-77955498D01*
X73450677Y-78008832D01*
X73450674Y-78008833D01*
X73444007Y-78011103D01*
X73438009Y-78014793D01*
X73438007Y-78014794D01*
X73392845Y-78042578D01*
X73291045Y-78105206D01*
X73286014Y-78110132D01*
X73286011Y-78110135D01*
X73278807Y-78117190D01*
X73162732Y-78230859D01*
X73158913Y-78236784D01*
X73158912Y-78236786D01*
X73150924Y-78249181D01*
X73065446Y-78381817D01*
X73063037Y-78388437D01*
X73063035Y-78388440D01*
X73034734Y-78466198D01*
X73004022Y-78550578D01*
X72981514Y-78728753D01*
X72982201Y-78735760D01*
X72982201Y-78735763D01*
X72982637Y-78740206D01*
X72999039Y-78907486D01*
X73001262Y-78914168D01*
X73001262Y-78914169D01*
X73040986Y-79033584D01*
X73055726Y-79077896D01*
X73059373Y-79083918D01*
X73131811Y-79203527D01*
X73148759Y-79231512D01*
X73153648Y-79236575D01*
X73153649Y-79236576D01*
X73251137Y-79337527D01*
X73284069Y-79400423D01*
X73286500Y-79425054D01*
X73286500Y-81782496D01*
X73266498Y-81850617D01*
X73249595Y-81871591D01*
X71203591Y-83917595D01*
X71141279Y-83951621D01*
X71114496Y-83954500D01*
X65691818Y-83954500D01*
X65623697Y-83934498D01*
X65577204Y-83880842D01*
X65567100Y-83810568D01*
X65596594Y-83745988D01*
X65604926Y-83737254D01*
X65616636Y-83726103D01*
X65641099Y-83702807D01*
X65649295Y-83690472D01*
X65736582Y-83559093D01*
X65740483Y-83553222D01*
X65786351Y-83432475D01*
X65801757Y-83391919D01*
X65801758Y-83391914D01*
X65804257Y-83385336D01*
X65808874Y-83352486D01*
X65828700Y-83211416D01*
X65828700Y-83211411D01*
X65829251Y-83207493D01*
X65829565Y-83185000D01*
X65809546Y-83006528D01*
X65750485Y-82836927D01*
X65655316Y-82684625D01*
X65582046Y-82610842D01*
X65533733Y-82562190D01*
X65533729Y-82562187D01*
X65528770Y-82557193D01*
X65517761Y-82550206D01*
X65470860Y-82520442D01*
X65377136Y-82460963D01*
X65322253Y-82441420D01*
X65214586Y-82403081D01*
X65214581Y-82403080D01*
X65207951Y-82400719D01*
X65200965Y-82399886D01*
X65200961Y-82399885D01*
X65071774Y-82384481D01*
X65029624Y-82379455D01*
X65022621Y-82380191D01*
X65022620Y-82380191D01*
X65008150Y-82381712D01*
X64995868Y-82383003D01*
X64926030Y-82370231D01*
X64893601Y-82346788D01*
X64037404Y-81490590D01*
X64003379Y-81428278D01*
X64000500Y-81401495D01*
X64000500Y-80057847D01*
X64020502Y-79989726D01*
X64039608Y-79966602D01*
X64111992Y-79897671D01*
X64111995Y-79897668D01*
X64117099Y-79892807D01*
X64134570Y-79866512D01*
X64212582Y-79749093D01*
X64216483Y-79743222D01*
X64231168Y-79704564D01*
X64277757Y-79581919D01*
X64277758Y-79581914D01*
X64280257Y-79575336D01*
X64305251Y-79397493D01*
X64305565Y-79375000D01*
X64285546Y-79196528D01*
X64279427Y-79178955D01*
X64228803Y-79033584D01*
X64226485Y-79026927D01*
X64131316Y-78874625D01*
X64067771Y-78810635D01*
X64009733Y-78752190D01*
X64009729Y-78752187D01*
X64004770Y-78747193D01*
X63993761Y-78740206D01*
X63946860Y-78710442D01*
X63853136Y-78650963D01*
X63823352Y-78640357D01*
X63690586Y-78593081D01*
X63690581Y-78593080D01*
X63683951Y-78590719D01*
X63676965Y-78589886D01*
X63676961Y-78589885D01*
X63549177Y-78574648D01*
X63505624Y-78569455D01*
X63498621Y-78570191D01*
X63498620Y-78570191D01*
X63334025Y-78587490D01*
X63334021Y-78587491D01*
X63327017Y-78588227D01*
X63320346Y-78590498D01*
X63163677Y-78643832D01*
X63163674Y-78643833D01*
X63157007Y-78646103D01*
X63151009Y-78649793D01*
X63151007Y-78649794D01*
X63080526Y-78693154D01*
X63004045Y-78740206D01*
X62999014Y-78745132D01*
X62999011Y-78745135D01*
X62991807Y-78752190D01*
X62875732Y-78865859D01*
X62871913Y-78871784D01*
X62871912Y-78871786D01*
X62782265Y-79010891D01*
X62778446Y-79016817D01*
X62776037Y-79023437D01*
X62776035Y-79023440D01*
X62758646Y-79071217D01*
X62717022Y-79185578D01*
X62694514Y-79363753D01*
X62695201Y-79370760D01*
X62695201Y-79370763D01*
X62698207Y-79401416D01*
X62712039Y-79542486D01*
X62714262Y-79549168D01*
X62714262Y-79549169D01*
X62722967Y-79575336D01*
X62768726Y-79712896D01*
X62832822Y-79818731D01*
X62851000Y-79887358D01*
X62829190Y-79954921D01*
X62774314Y-79999968D01*
X62725045Y-80010000D01*
X56896000Y-80010000D01*
X55535905Y-81370095D01*
X55473593Y-81404121D01*
X55446810Y-81407000D01*
X52324000Y-81407000D01*
X51083405Y-82647595D01*
X51021093Y-82681621D01*
X50994310Y-82684500D01*
X46862000Y-82684500D01*
X46793879Y-82664498D01*
X46747386Y-82610842D01*
X46736000Y-82558500D01*
X46736000Y-81459190D01*
X46756002Y-81391069D01*
X46772905Y-81370095D01*
X47752000Y-80391000D01*
X47752000Y-73714580D01*
X50080752Y-73714580D01*
X50105477Y-73832421D01*
X50108537Y-73842617D01*
X50189263Y-74047029D01*
X50193994Y-74056561D01*
X50308016Y-74244462D01*
X50314280Y-74253052D01*
X50458327Y-74419052D01*
X50465957Y-74426472D01*
X50590310Y-74528434D01*
X50630304Y-74587093D01*
X50632236Y-74658064D01*
X50595492Y-74718812D01*
X50560460Y-74741505D01*
X50559212Y-74742045D01*
X50551602Y-74744256D01*
X50410135Y-74827919D01*
X50293919Y-74944135D01*
X50289885Y-74950956D01*
X50285867Y-74957751D01*
X50210256Y-75085602D01*
X50208045Y-75093214D01*
X50208044Y-75093215D01*
X50194152Y-75141031D01*
X50164402Y-75243431D01*
X50163897Y-75249850D01*
X50161693Y-75277847D01*
X50161692Y-75277860D01*
X50161500Y-75280306D01*
X50161500Y-76611694D01*
X50161692Y-76614140D01*
X50161693Y-76614153D01*
X50163367Y-76635416D01*
X50164402Y-76648569D01*
X50166199Y-76654754D01*
X50201892Y-76777608D01*
X50210256Y-76806398D01*
X50214291Y-76813220D01*
X50214291Y-76813221D01*
X50261445Y-76892955D01*
X50293919Y-76947865D01*
X50410135Y-77064081D01*
X50416956Y-77068115D01*
X50490853Y-77111817D01*
X50551602Y-77147744D01*
X50559214Y-77149955D01*
X50559215Y-77149956D01*
X50663951Y-77180385D01*
X50709431Y-77193598D01*
X50722584Y-77194633D01*
X50743847Y-77196307D01*
X50743860Y-77196308D01*
X50746306Y-77196500D01*
X52377694Y-77196500D01*
X52380140Y-77196308D01*
X52380153Y-77196307D01*
X52401416Y-77194633D01*
X52414569Y-77193598D01*
X52460049Y-77180385D01*
X52564785Y-77149956D01*
X52564786Y-77149955D01*
X52572398Y-77147744D01*
X52633148Y-77111817D01*
X52690747Y-77077753D01*
X55836514Y-77077753D01*
X55837201Y-77084760D01*
X55837201Y-77084763D01*
X55839273Y-77105891D01*
X55854039Y-77256486D01*
X55856262Y-77263168D01*
X55856262Y-77263169D01*
X55888525Y-77360155D01*
X55910726Y-77426896D01*
X55914373Y-77432918D01*
X55956879Y-77503103D01*
X56003759Y-77580512D01*
X56008648Y-77585575D01*
X56008649Y-77585576D01*
X56029152Y-77606807D01*
X56128514Y-77709699D01*
X56278789Y-77808036D01*
X56447116Y-77870636D01*
X56454097Y-77871567D01*
X56454099Y-77871568D01*
X56618149Y-77893457D01*
X56618153Y-77893457D01*
X56625130Y-77894388D01*
X56632142Y-77893750D01*
X56632146Y-77893750D01*
X56796960Y-77878751D01*
X56796961Y-77878751D01*
X56803981Y-77878112D01*
X56974782Y-77822615D01*
X56980833Y-77819008D01*
X57122992Y-77734265D01*
X57122994Y-77734264D01*
X57129044Y-77730657D01*
X57259099Y-77606807D01*
X57276570Y-77580512D01*
X57354582Y-77463093D01*
X57357466Y-77458753D01*
X78442514Y-77458753D01*
X78443201Y-77465760D01*
X78443201Y-77465763D01*
X78447339Y-77507963D01*
X78460039Y-77637486D01*
X78462262Y-77644168D01*
X78462262Y-77644169D01*
X78510144Y-77788108D01*
X78516726Y-77807896D01*
X78520373Y-77813918D01*
X78606011Y-77955323D01*
X78609759Y-77961512D01*
X78614648Y-77966575D01*
X78614649Y-77966576D01*
X78657649Y-78011103D01*
X78734514Y-78090699D01*
X78884789Y-78189036D01*
X79053116Y-78251636D01*
X79060097Y-78252567D01*
X79060099Y-78252568D01*
X79224149Y-78274457D01*
X79224153Y-78274457D01*
X79231130Y-78275388D01*
X79238142Y-78274750D01*
X79238146Y-78274750D01*
X79402960Y-78259751D01*
X79402961Y-78259751D01*
X79409981Y-78259112D01*
X79580782Y-78203615D01*
X79611714Y-78185176D01*
X79728992Y-78115265D01*
X79728994Y-78115264D01*
X79735044Y-78111657D01*
X79846778Y-78005254D01*
X79909903Y-77972762D01*
X79933670Y-77970500D01*
X83829819Y-77970500D01*
X83841704Y-77971828D01*
X83841745Y-77971318D01*
X83850691Y-77972038D01*
X83859447Y-77974019D01*
X83912263Y-77970742D01*
X83920067Y-77970500D01*
X83935940Y-77970500D01*
X83946052Y-77969052D01*
X83956106Y-77968022D01*
X83984097Y-77966285D01*
X84002538Y-77965141D01*
X84010982Y-77962093D01*
X84014694Y-77961324D01*
X84029399Y-77957657D01*
X84033027Y-77956596D01*
X84041918Y-77955323D01*
X84084282Y-77936061D01*
X84093637Y-77932254D01*
X84128943Y-77919509D01*
X84128947Y-77919507D01*
X84137387Y-77916460D01*
X84144635Y-77911165D01*
X84147975Y-77909389D01*
X84161089Y-77901726D01*
X84164261Y-77899697D01*
X84172428Y-77895984D01*
X84179223Y-77890129D01*
X84179226Y-77890127D01*
X84207675Y-77865613D01*
X84215596Y-77859324D01*
X84222402Y-77854352D01*
X84226336Y-77851478D01*
X84237079Y-77840735D01*
X84243926Y-77834377D01*
X84257576Y-77822615D01*
X84281037Y-77802400D01*
X84285920Y-77794866D01*
X84291819Y-77788104D01*
X84291824Y-77788108D01*
X84300800Y-77777014D01*
X88583774Y-73494040D01*
X88646086Y-73460014D01*
X88716901Y-73465079D01*
X88773737Y-73507626D01*
X88798548Y-73574146D01*
X88798660Y-73590384D01*
X88795979Y-73636885D01*
X88790416Y-73733376D01*
X88790066Y-73739438D01*
X88816883Y-73961044D01*
X88882519Y-74174400D01*
X88885095Y-74179390D01*
X88885095Y-74179391D01*
X88947202Y-74299720D01*
X88984901Y-74372759D01*
X88988310Y-74377201D01*
X88988312Y-74377205D01*
X89110330Y-74536222D01*
X89120790Y-74549854D01*
X89285893Y-74700086D01*
X89290647Y-74703068D01*
X89340639Y-74734428D01*
X89387717Y-74787571D01*
X89398589Y-74857730D01*
X89369805Y-74922630D01*
X89308836Y-74962162D01*
X89192215Y-74996044D01*
X89192214Y-74996045D01*
X89184602Y-74998256D01*
X89043135Y-75081919D01*
X88926919Y-75198135D01*
X88922885Y-75204956D01*
X88889613Y-75261217D01*
X88843256Y-75339602D01*
X88841045Y-75347214D01*
X88841044Y-75347215D01*
X88830647Y-75383001D01*
X88797402Y-75497431D01*
X88796897Y-75503850D01*
X88794693Y-75531847D01*
X88794692Y-75531860D01*
X88794500Y-75534306D01*
X88794500Y-76865694D01*
X88794692Y-76868140D01*
X88794693Y-76868153D01*
X88795876Y-76883180D01*
X88797402Y-76902569D01*
X88843256Y-77060398D01*
X88847291Y-77067220D01*
X88847291Y-77067221D01*
X88922885Y-77195044D01*
X88926919Y-77201865D01*
X89043135Y-77318081D01*
X89049956Y-77322115D01*
X89114279Y-77360155D01*
X89184602Y-77401744D01*
X89192214Y-77403955D01*
X89192215Y-77403956D01*
X89248186Y-77420217D01*
X89342431Y-77447598D01*
X89355584Y-77448633D01*
X89376847Y-77450307D01*
X89376860Y-77450308D01*
X89379306Y-77450500D01*
X90960694Y-77450500D01*
X90963140Y-77450308D01*
X90963153Y-77450307D01*
X90984416Y-77448633D01*
X90997569Y-77447598D01*
X91091814Y-77420217D01*
X91147785Y-77403956D01*
X91147786Y-77403955D01*
X91155398Y-77401744D01*
X91225722Y-77360155D01*
X91290044Y-77322115D01*
X91296865Y-77318081D01*
X91413081Y-77201865D01*
X91417115Y-77195044D01*
X91492709Y-77067221D01*
X91492709Y-77067220D01*
X91496744Y-77060398D01*
X91542598Y-76902569D01*
X91544124Y-76883180D01*
X91545307Y-76868153D01*
X91545308Y-76868140D01*
X91545500Y-76865694D01*
X91545500Y-75534306D01*
X91545308Y-75531860D01*
X91545307Y-75531847D01*
X91543103Y-75503850D01*
X91542598Y-75497431D01*
X91509353Y-75383001D01*
X91498956Y-75347215D01*
X91498955Y-75347214D01*
X91496744Y-75339602D01*
X91450388Y-75261217D01*
X91417115Y-75204956D01*
X91413081Y-75198135D01*
X91296865Y-75081919D01*
X91155398Y-74998256D01*
X91147786Y-74996045D01*
X91147785Y-74996044D01*
X91112515Y-74985797D01*
X91030878Y-74962079D01*
X90971044Y-74923867D01*
X90941366Y-74859371D01*
X90951269Y-74789068D01*
X90992506Y-74738761D01*
X91110839Y-74653730D01*
X91110846Y-74653724D01*
X91115405Y-74650448D01*
X91191918Y-74571493D01*
X91266846Y-74494174D01*
X91266848Y-74494171D01*
X91270749Y-74490146D01*
X91395250Y-74304868D01*
X91484974Y-74100471D01*
X91486282Y-74095023D01*
X91486284Y-74095017D01*
X91535775Y-73888872D01*
X91535775Y-73888871D01*
X91537085Y-73883415D01*
X91543538Y-73771500D01*
X91549611Y-73666169D01*
X91549611Y-73666166D01*
X91549934Y-73660562D01*
X91523117Y-73438956D01*
X91457481Y-73225600D01*
X91366528Y-73049383D01*
X91357672Y-73032226D01*
X91355099Y-73027241D01*
X91351690Y-73022799D01*
X91351688Y-73022795D01*
X91222620Y-72854590D01*
X91219210Y-72850146D01*
X91054107Y-72699914D01*
X90865010Y-72581293D01*
X90859800Y-72579199D01*
X90859793Y-72579195D01*
X90826868Y-72565959D01*
X90771123Y-72521992D01*
X90747998Y-72454868D01*
X90764835Y-72385896D01*
X90819620Y-72335326D01*
X90851437Y-72320150D01*
X90934129Y-72280708D01*
X91115405Y-72150448D01*
X91250735Y-72010799D01*
X91266846Y-71994174D01*
X91266848Y-71994171D01*
X91270749Y-71990146D01*
X91395250Y-71804868D01*
X91484974Y-71600471D01*
X91486282Y-71595023D01*
X91486284Y-71595017D01*
X91535775Y-71388872D01*
X91535775Y-71388871D01*
X91537085Y-71383415D01*
X91549934Y-71160562D01*
X91523117Y-70938956D01*
X91457481Y-70725600D01*
X91386061Y-70587227D01*
X91357672Y-70532226D01*
X91355099Y-70527241D01*
X91351690Y-70522799D01*
X91351688Y-70522795D01*
X91222620Y-70354590D01*
X91219210Y-70350146D01*
X91054107Y-70199914D01*
X90926398Y-70119802D01*
X90879320Y-70066659D01*
X90868448Y-69996500D01*
X90897232Y-69931600D01*
X90941604Y-69898183D01*
X90952966Y-69893065D01*
X90962256Y-69887894D01*
X91144575Y-69765150D01*
X91152870Y-69758481D01*
X91311900Y-69606772D01*
X91318941Y-69598814D01*
X91450141Y-69422475D01*
X91455745Y-69413438D01*
X91555357Y-69217516D01*
X91559357Y-69207665D01*
X91624534Y-68997760D01*
X91626817Y-68987376D01*
X91628861Y-68971957D01*
X91626665Y-68957793D01*
X91613478Y-68954000D01*
X88728808Y-68954000D01*
X88715277Y-68957973D01*
X88713752Y-68968580D01*
X88738477Y-69086421D01*
X88741537Y-69096617D01*
X88822263Y-69301029D01*
X88826994Y-69310561D01*
X88941016Y-69498462D01*
X88947280Y-69507052D01*
X89091327Y-69673052D01*
X89098958Y-69680472D01*
X89268911Y-69819826D01*
X89277678Y-69825850D01*
X89407616Y-69899815D01*
X89456922Y-69950897D01*
X89470784Y-70020527D01*
X89444801Y-70086598D01*
X89409852Y-70117393D01*
X89405871Y-70119292D01*
X89224595Y-70249552D01*
X89069251Y-70409854D01*
X88944750Y-70595132D01*
X88855026Y-70799529D01*
X88853718Y-70804977D01*
X88853716Y-70804983D01*
X88819377Y-70948016D01*
X88802915Y-71016585D01*
X88790066Y-71239438D01*
X88816883Y-71461044D01*
X88881890Y-71672355D01*
X88881890Y-71672357D01*
X88882519Y-71674400D01*
X88882112Y-71674525D01*
X88888999Y-71741895D01*
X88854215Y-71807971D01*
X83729591Y-76932595D01*
X83667279Y-76966621D01*
X83640496Y-76969500D01*
X79931641Y-76969500D01*
X79863520Y-76949498D01*
X79842235Y-76932284D01*
X79757733Y-76847190D01*
X79757729Y-76847187D01*
X79752770Y-76842193D01*
X79741761Y-76835206D01*
X79609684Y-76751388D01*
X79601136Y-76745963D01*
X79549668Y-76727636D01*
X79438586Y-76688081D01*
X79438581Y-76688080D01*
X79431951Y-76685719D01*
X79424965Y-76684886D01*
X79424961Y-76684885D01*
X79279093Y-76667492D01*
X79253624Y-76664455D01*
X79246621Y-76665191D01*
X79246620Y-76665191D01*
X79082025Y-76682490D01*
X79082021Y-76682491D01*
X79075017Y-76683227D01*
X79068346Y-76685498D01*
X78911677Y-76738832D01*
X78911674Y-76738833D01*
X78905007Y-76741103D01*
X78899009Y-76744793D01*
X78899007Y-76744794D01*
X78889802Y-76750457D01*
X78752045Y-76835206D01*
X78747014Y-76840132D01*
X78747011Y-76840135D01*
X78703055Y-76883180D01*
X78623732Y-76960859D01*
X78619913Y-76966784D01*
X78619912Y-76966786D01*
X78560823Y-77058475D01*
X78526446Y-77111817D01*
X78524037Y-77118437D01*
X78524035Y-77118440D01*
X78498368Y-77188960D01*
X78465022Y-77280578D01*
X78442514Y-77458753D01*
X57357466Y-77458753D01*
X57358483Y-77457222D01*
X57381090Y-77397709D01*
X57419757Y-77295919D01*
X57419758Y-77295914D01*
X57422257Y-77289336D01*
X57425935Y-77263169D01*
X57426307Y-77260519D01*
X57455595Y-77195845D01*
X57461986Y-77188960D01*
X59279067Y-75371879D01*
X59341328Y-75338353D01*
X59343981Y-75338112D01*
X59466749Y-75298222D01*
X59508082Y-75284792D01*
X59514782Y-75282615D01*
X59520833Y-75279008D01*
X59662992Y-75194265D01*
X59662994Y-75194264D01*
X59669044Y-75190657D01*
X59799099Y-75066807D01*
X59815117Y-75042699D01*
X59851488Y-74987955D01*
X59898483Y-74917222D01*
X59933205Y-74825817D01*
X59959757Y-74755919D01*
X59959758Y-74755914D01*
X59962257Y-74749336D01*
X59963237Y-74742364D01*
X59986700Y-74575416D01*
X59986700Y-74575411D01*
X59987251Y-74571493D01*
X59987470Y-74555796D01*
X59987510Y-74552963D01*
X59987510Y-74552958D01*
X59987565Y-74549000D01*
X59972058Y-74410753D01*
X61932514Y-74410753D01*
X61933201Y-74417760D01*
X61933201Y-74417763D01*
X61939842Y-74485492D01*
X61950039Y-74589486D01*
X61952262Y-74596168D01*
X61952262Y-74596169D01*
X61998097Y-74733955D01*
X62006726Y-74759896D01*
X62010373Y-74765918D01*
X62092767Y-74901966D01*
X62099759Y-74913512D01*
X62104648Y-74918575D01*
X62104649Y-74918576D01*
X62134512Y-74949500D01*
X62224514Y-75042699D01*
X62374789Y-75141036D01*
X62543116Y-75203636D01*
X62550097Y-75204567D01*
X62550099Y-75204568D01*
X62714149Y-75226457D01*
X62714153Y-75226457D01*
X62721130Y-75227388D01*
X62728142Y-75226750D01*
X62728146Y-75226750D01*
X62892960Y-75211751D01*
X62892961Y-75211751D01*
X62899981Y-75211112D01*
X63052676Y-75161498D01*
X63064082Y-75157792D01*
X63070782Y-75155615D01*
X63091904Y-75143024D01*
X63180399Y-75090271D01*
X63244916Y-75072500D01*
X63756493Y-75072500D01*
X63825486Y-75093068D01*
X63898789Y-75141036D01*
X64067116Y-75203636D01*
X64074097Y-75204567D01*
X64074099Y-75204568D01*
X64238149Y-75226457D01*
X64238153Y-75226457D01*
X64245130Y-75227388D01*
X64252142Y-75226750D01*
X64252146Y-75226750D01*
X64416960Y-75211751D01*
X64416961Y-75211751D01*
X64423981Y-75211112D01*
X64576676Y-75161498D01*
X64588082Y-75157792D01*
X64594782Y-75155615D01*
X64619247Y-75141031D01*
X64742992Y-75067265D01*
X64742994Y-75067264D01*
X64749044Y-75063657D01*
X64879099Y-74939807D01*
X64890512Y-74922630D01*
X64933631Y-74857730D01*
X64978483Y-74790222D01*
X64994014Y-74749336D01*
X65039757Y-74628919D01*
X65039758Y-74628914D01*
X65042257Y-74622336D01*
X65046874Y-74589486D01*
X65066700Y-74448416D01*
X65066700Y-74448411D01*
X65067251Y-74444493D01*
X65067403Y-74433576D01*
X65067510Y-74425963D01*
X65067510Y-74425958D01*
X65067565Y-74422000D01*
X65047546Y-74243528D01*
X65041427Y-74225955D01*
X64999519Y-74105612D01*
X64988485Y-74073927D01*
X64969552Y-74043627D01*
X64897049Y-73927599D01*
X64893316Y-73921625D01*
X64829771Y-73857635D01*
X64771733Y-73799190D01*
X64771729Y-73799187D01*
X64766770Y-73794193D01*
X64755761Y-73787206D01*
X64688134Y-73744289D01*
X64615136Y-73697963D01*
X64546714Y-73673599D01*
X64452586Y-73640081D01*
X64452581Y-73640080D01*
X64445951Y-73637719D01*
X64438965Y-73636886D01*
X64438961Y-73636885D01*
X64311177Y-73621648D01*
X64267624Y-73616455D01*
X64260621Y-73617191D01*
X64260620Y-73617191D01*
X64096025Y-73634490D01*
X64096021Y-73634491D01*
X64089017Y-73635227D01*
X63919007Y-73693103D01*
X63821943Y-73752818D01*
X63755922Y-73771500D01*
X63243618Y-73771500D01*
X63176106Y-73751887D01*
X63091136Y-73697963D01*
X63022714Y-73673599D01*
X62928586Y-73640081D01*
X62928581Y-73640080D01*
X62921951Y-73637719D01*
X62914965Y-73636886D01*
X62914961Y-73636885D01*
X62787177Y-73621648D01*
X62743624Y-73616455D01*
X62736621Y-73617191D01*
X62736620Y-73617191D01*
X62572025Y-73634490D01*
X62572021Y-73634491D01*
X62565017Y-73635227D01*
X62558346Y-73637498D01*
X62401677Y-73690832D01*
X62401674Y-73690833D01*
X62395007Y-73693103D01*
X62389009Y-73696793D01*
X62389007Y-73696794D01*
X62354607Y-73717957D01*
X62242045Y-73787206D01*
X62237014Y-73792132D01*
X62237011Y-73792135D01*
X62195873Y-73832421D01*
X62113732Y-73912859D01*
X62109913Y-73918784D01*
X62109912Y-73918786D01*
X62035064Y-74034927D01*
X62016446Y-74063817D01*
X61955022Y-74232578D01*
X61932514Y-74410753D01*
X59972058Y-74410753D01*
X59967546Y-74370528D01*
X59961427Y-74352955D01*
X59931292Y-74266419D01*
X59908485Y-74200927D01*
X59904417Y-74194416D01*
X59817049Y-74054599D01*
X59813316Y-74048625D01*
X59720811Y-73955472D01*
X59691733Y-73926190D01*
X59691729Y-73926187D01*
X59686770Y-73921193D01*
X59679576Y-73916627D01*
X59562954Y-73842617D01*
X59535136Y-73824963D01*
X59448724Y-73794193D01*
X59372586Y-73767081D01*
X59372581Y-73767080D01*
X59365951Y-73764719D01*
X59358965Y-73763886D01*
X59358961Y-73763885D01*
X59231177Y-73748648D01*
X59187624Y-73743455D01*
X59180621Y-73744191D01*
X59180620Y-73744191D01*
X59016025Y-73761490D01*
X59016021Y-73761491D01*
X59009017Y-73762227D01*
X59002346Y-73764498D01*
X58845677Y-73817832D01*
X58845674Y-73817833D01*
X58839007Y-73820103D01*
X58833009Y-73823793D01*
X58833007Y-73823794D01*
X58818984Y-73832421D01*
X58686045Y-73914206D01*
X58681014Y-73919132D01*
X58681011Y-73919135D01*
X58643905Y-73955472D01*
X58557732Y-74039859D01*
X58553913Y-74045784D01*
X58553912Y-74045786D01*
X58474844Y-74168475D01*
X58460446Y-74190817D01*
X58458037Y-74197437D01*
X58458035Y-74197440D01*
X58442702Y-74239569D01*
X58399022Y-74359578D01*
X58398139Y-74366567D01*
X58398137Y-74366576D01*
X58396843Y-74376820D01*
X58368461Y-74441896D01*
X58360932Y-74450122D01*
X56545054Y-76266000D01*
X56482896Y-76299942D01*
X56482904Y-76299977D01*
X56482783Y-76300004D01*
X56482742Y-76300026D01*
X56482515Y-76300062D01*
X56476015Y-76301491D01*
X56469017Y-76302227D01*
X56462352Y-76304496D01*
X56305677Y-76357832D01*
X56305674Y-76357833D01*
X56299007Y-76360103D01*
X56146045Y-76454206D01*
X56141014Y-76459132D01*
X56141011Y-76459135D01*
X56078883Y-76519976D01*
X56017732Y-76579859D01*
X56013913Y-76585784D01*
X56013912Y-76585786D01*
X55924265Y-76724891D01*
X55920446Y-76730817D01*
X55918037Y-76737437D01*
X55918035Y-76737440D01*
X55903415Y-76777608D01*
X55859022Y-76899578D01*
X55836514Y-77077753D01*
X52690747Y-77077753D01*
X52707044Y-77068115D01*
X52713865Y-77064081D01*
X52830081Y-76947865D01*
X52862555Y-76892955D01*
X52909709Y-76813221D01*
X52909709Y-76813220D01*
X52913744Y-76806398D01*
X52922109Y-76777608D01*
X52957801Y-76654754D01*
X52959598Y-76648569D01*
X52960633Y-76635416D01*
X52962307Y-76614153D01*
X52962308Y-76614140D01*
X52962500Y-76611694D01*
X52962500Y-75280306D01*
X52962308Y-75277860D01*
X52962307Y-75277847D01*
X52960103Y-75249850D01*
X52959598Y-75243431D01*
X52929848Y-75141031D01*
X52915956Y-75093215D01*
X52915955Y-75093214D01*
X52913744Y-75085602D01*
X52838134Y-74957751D01*
X52834115Y-74950956D01*
X52830081Y-74944135D01*
X52713865Y-74827919D01*
X52572398Y-74744256D01*
X52565312Y-74742197D01*
X52510923Y-74696943D01*
X52489562Y-74629236D01*
X52508197Y-74560729D01*
X52545170Y-74522195D01*
X52561575Y-74511151D01*
X52569870Y-74504481D01*
X52728900Y-74352772D01*
X52735941Y-74344814D01*
X52867141Y-74168475D01*
X52872745Y-74159438D01*
X52972357Y-73963516D01*
X52976357Y-73953665D01*
X53041534Y-73743760D01*
X53043817Y-73733376D01*
X53045861Y-73717957D01*
X53043665Y-73703793D01*
X53030478Y-73700000D01*
X50095808Y-73700000D01*
X50082277Y-73703973D01*
X50080752Y-73714580D01*
X47752000Y-73714580D01*
X47752000Y-73174043D01*
X50078139Y-73174043D01*
X50080335Y-73188207D01*
X50093522Y-73192000D01*
X51289885Y-73192000D01*
X51305124Y-73187525D01*
X51306329Y-73186135D01*
X51308000Y-73178452D01*
X51308000Y-73173885D01*
X51816000Y-73173885D01*
X51820475Y-73189124D01*
X51821865Y-73190329D01*
X51829548Y-73192000D01*
X53028192Y-73192000D01*
X53041723Y-73188027D01*
X53043248Y-73177420D01*
X53018523Y-73059579D01*
X53015463Y-73049383D01*
X52934737Y-72844971D01*
X52930006Y-72835439D01*
X52815984Y-72647538D01*
X52809720Y-72638948D01*
X52665673Y-72472948D01*
X52658042Y-72465528D01*
X52488089Y-72326174D01*
X52479322Y-72320150D01*
X52288318Y-72211424D01*
X52278654Y-72206959D01*
X52072059Y-72131969D01*
X52061792Y-72129198D01*
X51844345Y-72089877D01*
X51836116Y-72088944D01*
X51831624Y-72088732D01*
X51818876Y-72092475D01*
X51817671Y-72093865D01*
X51816000Y-72101548D01*
X51816000Y-73173885D01*
X51308000Y-73173885D01*
X51308000Y-72110030D01*
X51303690Y-72095352D01*
X51291807Y-72093289D01*
X51187675Y-72102124D01*
X51177203Y-72103914D01*
X50964465Y-72159130D01*
X50954425Y-72162665D01*
X50754030Y-72252937D01*
X50744744Y-72258106D01*
X50562425Y-72380850D01*
X50554130Y-72387519D01*
X50395100Y-72539228D01*
X50388059Y-72547186D01*
X50256859Y-72723525D01*
X50251255Y-72732562D01*
X50151643Y-72928484D01*
X50147643Y-72938335D01*
X50082466Y-73148240D01*
X50080183Y-73158624D01*
X50078139Y-73174043D01*
X47752000Y-73174043D01*
X47752000Y-67616190D01*
X47772002Y-67548069D01*
X47788905Y-67527095D01*
X47969095Y-67346905D01*
X48031407Y-67312879D01*
X48058190Y-67310000D01*
X79741500Y-67310000D01*
X79809621Y-67330002D01*
G37*
%TD.AperFunction*%
%TD*%
%TA.AperFunction,Conductor*%
%TO.N,/MOS-*%
G36*
X44900121Y-67076002D02*
G01*
X44946614Y-67129658D01*
X44958000Y-67182000D01*
X44958000Y-78433810D01*
X44937998Y-78501931D01*
X44921095Y-78522905D01*
X42200905Y-81243095D01*
X42138593Y-81277121D01*
X42111810Y-81280000D01*
X34088190Y-81280000D01*
X34020069Y-81259998D01*
X33999095Y-81243095D01*
X31278905Y-78522905D01*
X31244879Y-78460593D01*
X31242000Y-78433810D01*
X31242000Y-67182000D01*
X31262002Y-67113879D01*
X31315658Y-67067386D01*
X31368000Y-67056000D01*
X44832000Y-67056000D01*
X44900121Y-67076002D01*
G37*
%TD.AperFunction*%
%TD*%
M02*
